<svg width="106" height="51" viewBox="0 0 106 51" fill="none" xmlns="http://www.w3.org/2000/svg">
<path d="M44.4231 8.71194C44.3416 8.76243 44.255 8.79273 44.1633 8.80283C44.0716 8.81293 43.9748 8.82808 43.8729 8.84828C43.7812 8.85838 43.6946 8.87858 43.6131 8.90888C43.5316 8.93918 43.4704 8.99473 43.4297 9.07553C43.3278 8.97453 43.2157 8.88868 43.0934 8.81798C42.9712 8.74728 42.8489 8.67154 42.7266 8.59074C42.6248 8.62104 42.5229 8.66144 42.421 8.71194C42.3191 8.76243 42.2172 8.78768 42.1153 8.78768C42.044 8.78768 41.9727 8.76243 41.9013 8.71194C41.8198 8.77253 41.723 8.82303 41.6109 8.86343C41.5091 8.89373 41.397 8.92403 41.2747 8.95433C41.1626 8.98463 41.0557 9.02503 40.9538 9.07553C40.8621 9.12603 40.7958 9.20178 40.7551 9.30278C40.7347 9.25228 40.6838 9.23713 40.6022 9.25733C40.5309 9.27753 40.4902 9.25228 40.48 9.18158C40.1539 9.29268 39.8228 9.38863 39.4866 9.46943C39.1503 9.55023 38.8141 9.63608 38.4778 9.72698C38.1416 9.81788 37.8105 9.91887 37.4844 10.03C37.1584 10.1411 36.8425 10.2774 36.5369 10.439C36.5267 10.4491 36.5216 10.4643 36.5216 10.4845C36.5216 10.5855 36.5369 10.6814 36.5674 10.7723C36.598 10.8632 36.6235 10.9491 36.6438 11.0299C36.4604 11.646 36.3382 12.2722 36.277 12.9084C36.2159 13.5447 36.1344 14.1709 36.0325 14.787V14.8476C36.0325 14.8981 36.0529 14.9385 36.0936 14.9688C36.1344 14.989 36.1548 15.0294 36.1548 15.09L36.1395 15.1203C36.0885 15.1506 36.0529 15.1961 36.0325 15.2567C36.0121 15.3072 36.0019 15.3627 36.0019 15.4233C36.0019 15.4637 36.0121 15.5243 36.0325 15.6051C35.8593 16.1808 35.7421 16.7666 35.681 17.3625C35.63 17.9584 35.5638 18.5543 35.4823 19.1502L35.3447 20.1501C35.3244 20.2107 35.304 20.2713 35.2836 20.3319C35.2734 20.3824 35.2683 20.4379 35.2683 20.4985C35.2683 20.8217 35.2887 21.1399 35.3295 21.453C35.3804 21.756 35.3957 22.0691 35.3753 22.3923C35.467 22.5337 35.5129 22.67 35.5129 22.8013C35.5129 22.8518 35.5078 22.9023 35.4976 22.9528C35.4976 23.0033 35.4925 23.0538 35.4823 23.1043C35.6148 23.2356 35.7676 23.3265 35.9408 23.377C36.1242 23.4376 36.2872 23.5285 36.4299 23.6497V23.7103C36.4299 23.8113 36.4146 23.9073 36.384 23.9982C36.3535 24.0992 36.328 24.2002 36.3076 24.3011C36.2872 24.3819 36.2618 24.4981 36.2312 24.6496C36.2108 24.8011 36.1802 24.9021 36.1395 24.9526C36.0885 25.0233 36.0121 25.0839 35.9102 25.1344C35.8185 25.195 35.7268 25.2253 35.6351 25.2253C35.6046 25.2253 35.5587 25.2101 35.4976 25.1798C35.4466 25.1495 35.4059 25.1243 35.3753 25.1041C35.3244 25.1041 35.2581 25.1293 35.1766 25.1798C35.0951 25.2303 35.0136 25.2556 34.9321 25.2556C34.8913 25.2556 34.8557 25.2505 34.8251 25.2404C34.7945 25.2404 34.7589 25.2303 34.7181 25.2101C34.6774 25.1091 34.6162 25.0182 34.5347 24.9374C34.4634 24.8667 34.3768 24.796 34.2749 24.7253C34.2851 24.5839 34.2596 24.4779 34.1985 24.4072C34.1374 24.3365 34.0762 24.2456 34.0151 24.1345C33.9947 23.9931 33.9743 23.8315 33.954 23.6497C33.9438 23.4679 33.8673 23.3366 33.7247 23.2558C33.7756 23.1851 33.8011 23.0892 33.8011 22.968C33.8011 22.9175 33.7909 22.8619 33.7706 22.8013C33.7604 22.7407 33.7298 22.6953 33.6789 22.665V22.6347C33.6687 22.5842 33.6839 22.5488 33.7247 22.5286C33.7756 22.4983 33.8011 22.4579 33.8011 22.4074V22.3468C33.7298 22.0236 33.6941 21.6853 33.6941 21.3318C33.6941 20.9985 33.7043 20.6702 33.7247 20.347C33.7451 20.0137 33.7451 19.6804 33.7247 19.3471C33.7858 19.2966 33.8317 19.2158 33.8623 19.1047C33.903 18.9936 33.9336 18.8724 33.954 18.7411C33.9743 18.6098 33.9845 18.4836 33.9845 18.3624C33.9947 18.2311 34.0049 18.1251 34.0151 18.0443C34.066 17.4686 34.1475 16.903 34.2596 16.3475C34.3717 15.7819 34.4379 15.2062 34.4583 14.6204C34.5093 14.5396 34.5398 14.4335 34.55 14.3022C34.5602 14.1709 34.5653 14.0346 34.5653 13.8932C34.5653 13.7417 34.5755 13.5952 34.5959 13.4538C34.6162 13.3124 34.657 13.1912 34.7181 13.0902C34.7181 12.8074 34.7436 12.5247 34.7945 12.2419C34.8455 11.949 34.871 11.6561 34.871 11.3632C34.871 11.2218 34.8557 11.0753 34.8251 10.9238C34.7232 10.8834 34.6315 10.8632 34.55 10.8632C34.4379 10.8632 34.3208 10.8885 34.1985 10.939C34.0864 10.9794 34.0049 11.045 33.954 11.1359C33.7298 11.146 33.5107 11.1814 33.2968 11.242C33.0828 11.3026 32.8688 11.3329 32.6549 11.3329H32.502C32.4613 11.3329 32.4154 11.3278 32.3645 11.3177C32.2932 11.348 32.2167 11.3733 32.1352 11.3935C32.0639 11.4137 32.0333 11.4743 32.0435 11.5753C31.7277 11.6056 31.4169 11.6712 31.1112 11.7722C30.8158 11.8732 30.5203 11.9843 30.2248 12.1055C29.9293 12.2166 29.6338 12.3227 29.3384 12.4237C29.0327 12.5247 28.7219 12.5903 28.4061 12.6206C28.294 12.6711 28.2227 12.7771 28.1921 12.9387C27.968 12.9185 27.7795 12.863 27.6266 12.7721C27.4738 12.6812 27.2955 12.5954 27.0917 12.5146C27.0306 12.3025 27 12.1005 27 11.9086C27 11.6561 27.0509 11.4137 27.1528 11.1814C27.2547 10.9491 27.4177 10.7774 27.6419 10.6663C27.6928 10.6764 27.7387 10.6865 27.7795 10.6966C27.8202 10.6966 27.8661 10.6966 27.917 10.6966C28.08 10.6966 28.2431 10.6663 28.4061 10.6057C28.5691 10.5451 28.7372 10.5148 28.9104 10.5148C28.9614 10.5148 29.0174 10.5299 29.0785 10.5602C29.1499 10.5198 29.2416 10.4895 29.3536 10.4693C29.4555 10.439 29.5523 10.4138 29.644 10.3936C29.7459 10.3633 29.8376 10.3229 29.9191 10.2724C30.0006 10.2219 30.0516 10.1512 30.072 10.0603C30.1229 10.1007 30.179 10.1259 30.2401 10.136C30.3012 10.1461 30.3624 10.1512 30.4235 10.1512C30.5559 10.1512 30.6935 10.1259 30.8361 10.0754C30.9788 10.0249 31.0909 9.94412 31.1724 9.83303C31.2437 9.91382 31.3456 9.95422 31.478 9.95422C31.6207 9.95422 31.7582 9.91887 31.8907 9.84818C32.0333 9.76738 32.1709 9.72698 32.3033 9.72698C32.4052 9.72698 32.4817 9.76233 32.5326 9.83303C32.6447 9.74213 32.7771 9.67143 32.93 9.62093C33.0828 9.57043 33.2356 9.52498 33.3885 9.48458C33.5515 9.44418 33.6992 9.39873 33.8317 9.34823C33.9743 9.29773 34.0864 9.22703 34.1679 9.13613C34.2189 9.14623 34.3004 9.15128 34.4125 9.15128C34.5857 9.15128 34.7487 9.13108 34.9015 9.09068C35.0646 9.04018 35.2276 8.99473 35.3906 8.95433L35.7115 8.92403C35.7931 8.91393 35.8644 8.88868 35.9255 8.84828C35.9968 8.80788 36.0682 8.77253 36.1395 8.74223C36.2108 8.71193 36.2821 8.68669 36.3535 8.66649C36.435 8.64629 36.5318 8.64124 36.6438 8.65134C36.8884 8.52004 37.1482 8.41904 37.4233 8.34834C37.6984 8.27764 37.9786 8.21704 38.2639 8.16654C38.5492 8.10594 38.8294 8.04029 39.1045 7.96959C39.3796 7.88879 39.6394 7.77264 39.8839 7.62114H39.9298C40.1336 7.62114 40.3322 7.58579 40.5258 7.5151C40.7296 7.4444 40.9181 7.34845 41.0913 7.22725C41.1219 7.23735 41.1524 7.2424 41.183 7.2424H41.29C41.5753 7.2424 41.8504 7.202 42.1153 7.1212C42.3904 7.0404 42.6757 7 42.9712 7C43.1444 7 43.2819 7.02525 43.3838 7.07575C43.4857 7.11615 43.5774 7.1717 43.6589 7.2424C43.7404 7.303 43.827 7.3636 43.9187 7.4242C44.0104 7.4848 44.1276 7.53025 44.2703 7.56055C44.362 7.73224 44.4078 7.91909 44.4078 8.12109C44.4078 8.31299 44.4129 8.50994 44.4231 8.71194Z" fill="black"/>
<path d="M51.1325 22.0438C51.102 22.1852 51.0357 22.3014 50.9338 22.3923C50.8421 22.4731 50.7301 22.5387 50.5976 22.5892C50.4651 22.6397 50.3276 22.6751 50.1849 22.6953C50.0525 22.7054 49.9302 22.7104 49.8181 22.7104C49.7672 22.7104 49.7163 22.7104 49.6653 22.7104C49.6246 22.7003 49.5787 22.6953 49.5278 22.6953C49.4768 22.6953 49.4513 22.7205 49.4513 22.771C49.4513 22.8215 49.4259 22.8569 49.3749 22.8771C49.324 22.8569 49.273 22.8417 49.2221 22.8316C49.1711 22.8215 49.1202 22.8165 49.0693 22.8165C48.9979 22.8165 48.9266 22.8215 48.8553 22.8316C48.7942 22.8417 48.733 22.8468 48.6719 22.8468C48.5904 22.8468 48.5292 22.8367 48.4885 22.8165C48.4579 22.7963 48.4274 22.7761 48.3968 22.7559C48.3764 22.7256 48.3509 22.6953 48.3204 22.665C48.3 22.6347 48.2643 22.6094 48.2134 22.5892C48.1421 22.5589 48.0809 22.5539 48.03 22.5741C47.9892 22.5943 47.923 22.564 47.8313 22.4832C47.709 22.3822 47.602 22.261 47.5103 22.1196C47.4288 21.9681 47.3473 21.8115 47.2658 21.6499C47.1843 21.4883 47.0977 21.3267 47.006 21.1651C46.9143 21.0035 46.8073 20.8621 46.685 20.7409H46.5628C46.3794 20.7409 46.252 20.8167 46.1807 20.9682C46.1297 20.9379 46.0788 20.9025 46.0279 20.8621C45.9769 20.8116 45.9209 20.7712 45.8597 20.7409C45.6254 20.8116 45.3809 20.8722 45.1261 20.9227C44.8714 20.9732 44.6167 20.9985 44.362 20.9985H44.148C44.0869 20.9985 44.0206 20.9884 43.9493 20.9682C43.8474 21.0086 43.7557 21.0591 43.6742 21.1197C43.5927 21.1702 43.501 21.1954 43.3991 21.1954C43.338 21.1954 43.2667 21.1752 43.1851 21.1348C43.124 21.1348 43.0934 21.1601 43.0934 21.2106C43.1036 21.2611 43.0731 21.2863 43.0017 21.2863H42.8642C42.7215 21.2863 42.5789 21.2914 42.4363 21.3015C42.3038 21.3116 42.1662 21.3166 42.0236 21.3166C41.83 21.3166 41.6313 21.2914 41.4275 21.2409C41.3766 21.2712 41.3206 21.2863 41.2594 21.2863C41.2187 21.3065 41.1881 21.3419 41.1677 21.3924C41.1474 21.4328 41.127 21.4732 41.1066 21.5136C41.0862 21.5439 41.0557 21.5742 41.0149 21.6045C40.9843 21.6247 40.9385 21.6297 40.8773 21.6196C40.857 21.7408 40.806 21.8368 40.7245 21.9075C40.643 21.9782 40.6022 22.0842 40.6022 22.2256C40.4902 22.2862 40.3985 22.362 40.3271 22.4529C40.2558 22.5438 40.1845 22.6397 40.1132 22.7407C40.0419 22.8417 39.9654 22.9377 39.8839 23.0286C39.8126 23.1195 39.7209 23.1902 39.6088 23.2407C39.5579 23.3013 39.5426 23.3972 39.563 23.5285C39.4509 23.6194 39.3133 23.7002 39.1503 23.7709C38.9873 23.8416 38.8345 23.877 38.6918 23.877C38.3963 23.877 38.1926 23.7204 38.0805 23.4073C38.0805 23.3063 38.0907 23.2003 38.111 23.0892C38.1212 22.968 38.1416 22.8569 38.1722 22.7559C38.2027 22.6448 38.2486 22.5488 38.3097 22.468C38.3709 22.3771 38.4575 22.3115 38.5695 22.2711C38.5695 22.1802 38.539 22.1196 38.4778 22.0893C38.4167 22.0489 38.3912 21.9832 38.4014 21.8923C38.6765 21.761 38.916 21.5893 39.1198 21.3772C39.3235 21.1651 39.5069 20.9429 39.67 20.7106C39.8432 20.4682 40.0164 20.2258 40.1896 19.9834C40.3628 19.741 40.5564 19.5239 40.7704 19.332V19.0138C41.076 18.6906 41.2747 18.3271 41.3664 17.9231C41.4785 17.9029 41.5498 17.8524 41.5804 17.7716C41.6211 17.6908 41.6415 17.5948 41.6415 17.4837C41.6925 17.4837 41.723 17.4635 41.7332 17.4231C41.7536 17.3726 41.7994 17.3575 41.8708 17.3777C41.9625 17.1353 42.0644 16.9131 42.1764 16.7111C42.2885 16.5091 42.4006 16.3071 42.5127 16.1051C42.6247 15.893 42.7215 15.6758 42.8031 15.4536C42.8948 15.2314 42.961 14.984 43.0017 14.7113C43.1444 14.7012 43.2208 14.6355 43.231 14.5143C43.2514 14.383 43.2717 14.2669 43.2921 14.1659C43.445 14.0245 43.557 13.8578 43.6284 13.6659C43.7099 13.474 43.7812 13.2771 43.8423 13.0751C43.9035 12.863 43.9697 12.656 44.041 12.454C44.1225 12.2419 44.2346 12.055 44.3772 11.8934V11.848C44.3772 11.7975 44.3569 11.7672 44.3161 11.7571C44.2754 11.7369 44.255 11.7015 44.255 11.651C44.2652 11.6409 44.2703 11.6308 44.2703 11.6207C44.3925 11.5702 44.4842 11.4894 44.5454 11.3783C44.6065 11.2571 44.6982 11.1713 44.8205 11.1208C45.0344 11.2925 45.2229 11.3985 45.386 11.4389C45.549 11.4692 45.7629 11.4945 46.0279 11.5147C46.1603 11.6561 46.2316 11.8278 46.2418 12.0298C46.2622 12.2217 46.2979 12.4136 46.3488 12.6055C46.4303 12.9286 46.5169 13.2468 46.6086 13.5599C46.7105 13.8629 46.7869 14.176 46.8379 14.4992C46.8684 14.6911 46.9245 14.8729 47.006 15.0446C47.0875 15.2163 47.1435 15.393 47.1741 15.5748C47.1945 15.7162 47.1945 15.8778 47.1741 16.0596C47.1537 16.2313 47.1741 16.3828 47.2352 16.5141L47.3422 16.7565C47.3932 16.8676 47.4339 16.9838 47.4645 17.105C47.5053 17.2262 47.5409 17.3474 47.5715 17.4686C47.653 17.7716 47.7243 18.0998 47.7855 18.4533C47.8568 18.7967 47.9638 19.1098 48.1064 19.3926C48.1573 19.4936 48.2338 19.5643 48.3357 19.6047C48.4477 19.6451 48.57 19.6754 48.7025 19.6956C48.8349 19.7057 48.9623 19.7107 49.0845 19.7107C49.217 19.7006 49.3291 19.6956 49.4208 19.6956H49.5736C49.6347 19.6956 49.6959 19.7057 49.757 19.7259C49.7978 19.8067 49.8181 19.8774 49.8181 19.938C49.8181 20.0592 49.7774 20.1551 49.6959 20.2258C49.6144 20.2965 49.5736 20.3773 49.5736 20.4682C49.5736 20.5187 49.594 20.5743 49.6347 20.6349C49.594 20.6248 49.5329 20.6197 49.4513 20.6197C49.217 20.6197 48.9877 20.6601 48.7636 20.7409C48.8451 20.9126 48.9521 21.0591 49.0845 21.1803C49.2272 21.2914 49.3749 21.3974 49.5278 21.4984C49.6297 21.4176 49.7366 21.3772 49.8487 21.3772C49.971 21.3772 50.0831 21.4075 50.1849 21.4681C50.297 21.5186 50.4142 21.5439 50.5365 21.5439C50.6282 21.5439 50.6944 21.5287 50.7352 21.4984C50.8167 21.5893 50.8829 21.6853 50.9338 21.7863C50.9848 21.8772 51.051 21.963 51.1325 22.0438ZM46.3488 19.6198C46.3284 19.4481 46.2928 19.3269 46.2418 19.2562C46.2011 19.1754 46.1654 19.0795 46.1348 18.9684C46.0941 18.827 46.0635 18.6755 46.0431 18.5139C46.033 18.3523 46.0126 18.1958 45.982 18.0443C45.9107 17.7009 45.8292 17.3575 45.7375 17.0141C45.656 16.6707 45.549 16.3374 45.4165 16.0142C45.4573 15.9536 45.4777 15.898 45.4777 15.8475V15.8021C45.386 15.7011 45.3197 15.5799 45.279 15.4385C45.2382 15.287 45.1975 15.1405 45.1567 14.9991C45.1261 14.8476 45.0803 14.7113 45.0192 14.5901C44.9682 14.4588 44.8816 14.3527 44.7593 14.2719C44.7288 14.3325 44.7135 14.4032 44.7135 14.484C44.7135 14.5547 44.7186 14.6204 44.7288 14.681C44.7491 14.7416 44.7593 14.8072 44.7593 14.8779C44.6574 14.9284 44.581 15.0092 44.5301 15.1203C44.4893 15.2213 44.418 15.3021 44.3161 15.3627C44.2346 15.6859 44.1174 15.994 43.9646 16.2869C43.8118 16.5697 43.6487 16.8525 43.4755 17.1353C43.3125 17.4181 43.1546 17.7059 43.0017 17.9988C42.8489 18.2816 42.7266 18.5795 42.6349 18.8926C42.5025 18.9835 42.4108 19.0997 42.3598 19.2411C42.3191 19.3825 42.2987 19.5239 42.2987 19.6653C42.3904 19.7158 42.4923 19.7461 42.6044 19.7562C42.7266 19.7562 42.8438 19.7562 42.9559 19.7562C43.068 19.7562 43.175 19.7663 43.2768 19.7865C43.3787 19.8067 43.4704 19.8572 43.5519 19.938C43.6844 19.8976 43.827 19.8723 43.9799 19.8622C44.1429 19.842 44.2754 19.7966 44.3772 19.7259C44.581 19.7966 44.8001 19.8319 45.0344 19.8319C45.1567 19.8319 45.2739 19.8218 45.386 19.8016C45.5082 19.7814 45.6254 19.7562 45.7375 19.7259C45.8292 19.7461 45.9005 19.7814 45.9514 19.8319C46.0024 19.8723 46.0788 19.8875 46.1807 19.8774C46.2316 19.837 46.2622 19.7966 46.2724 19.7562C46.2826 19.7057 46.3081 19.6602 46.3488 19.6198Z" fill="black"/>
<path d="M58.9271 12.3631C58.9271 12.5348 58.9169 12.7014 58.8965 12.863C58.8863 13.0145 58.8557 13.1761 58.8048 13.3478C58.7131 13.4185 58.6316 13.5043 58.5603 13.6053L58.3463 13.8932C58.275 13.9841 58.1986 14.075 58.117 14.1659C58.0355 14.2467 57.9336 14.3123 57.8114 14.3628C57.7095 14.8072 57.5821 15.2365 57.4293 15.6506C57.2866 16.0546 57.1797 16.4788 57.1083 16.9232C56.9861 17.1454 56.8893 17.3878 56.818 17.6504C56.7466 17.913 56.6702 18.1806 56.5887 18.4533C56.5174 18.7159 56.4359 18.9684 56.3442 19.2108C56.2525 19.4532 56.1251 19.6703 55.9621 19.8622C55.8806 20.1046 55.7991 20.3672 55.7175 20.65C55.636 20.9227 55.4985 21.15 55.3049 21.3318C55.3151 21.352 55.3202 21.3823 55.3202 21.4227C55.3202 21.5439 55.2896 21.66 55.2285 21.7711C55.1673 21.8721 55.1368 21.9782 55.1368 22.0893C54.9738 22.2105 54.8158 22.3519 54.663 22.5135C54.5203 22.6751 54.3726 22.8367 54.2198 22.9983C54.0669 23.1599 53.9039 23.3013 53.7307 23.4225C53.5575 23.5437 53.369 23.6245 53.1652 23.6649C53.0226 23.5639 52.8901 23.4477 52.7678 23.3164C52.6456 23.1952 52.5029 23.0942 52.3399 23.0134C52.2584 22.5589 52.2075 22.1145 52.1871 21.6802C52.1769 21.2358 52.1412 20.7965 52.0801 20.3622C52.0393 20.1097 51.9731 19.8673 51.8814 19.635C51.7999 19.4027 51.7591 19.1653 51.7591 18.9229C51.7591 18.8724 51.7591 18.8219 51.7591 18.7714C51.7693 18.7108 51.7795 18.6553 51.7897 18.6048C51.6878 18.4937 51.6216 18.3574 51.591 18.1958C51.5605 18.0241 51.535 17.8524 51.5146 17.6807C51.4942 17.4989 51.4637 17.3221 51.4229 17.1504C51.3923 16.9787 51.3312 16.8323 51.2395 16.7111C51.2803 16.6707 51.3006 16.6151 51.3006 16.5444C51.3006 16.4939 51.2904 16.4434 51.2701 16.3929C51.2599 16.3424 51.2548 16.2919 51.2548 16.2414C51.2548 16.201 51.2701 16.1556 51.3006 16.1051C51.2191 16.0041 51.1631 15.9132 51.1325 15.8324C51.1121 15.7415 51.0969 15.6556 51.0867 15.5748C51.0765 15.4839 51.0663 15.393 51.0561 15.3021C51.0561 15.2112 51.0459 15.1153 51.0255 15.0143C51.0052 14.9436 50.9695 14.8931 50.9186 14.8628C50.8778 14.8224 50.8574 14.7921 50.8574 14.7719C50.8574 14.7214 50.8778 14.681 50.9186 14.6507C50.7759 14.4487 50.6587 14.2366 50.567 14.0144C50.4753 13.7922 50.3734 13.57 50.2614 13.3478C50.2716 13.2367 50.3123 13.1508 50.3836 13.0902C50.455 13.0296 50.5059 12.9488 50.5365 12.8478H51.0255C51.4739 13.7164 51.8152 14.6204 52.0495 15.5597C52.2941 16.4889 52.508 17.4282 52.6914 18.3776C52.7424 18.6502 52.7882 18.9229 52.829 19.1956C52.8799 19.4683 52.936 19.7461 52.9971 20.0289C53.0175 20.0895 53.048 20.1551 53.0888 20.2258C53.1296 20.2965 53.1499 20.3672 53.1499 20.4379C53.1499 20.4985 53.1346 20.5591 53.1041 20.6197C53.1652 20.6601 53.2111 20.7157 53.2416 20.7864C53.2824 20.8571 53.313 20.9328 53.3333 21.0136C53.3639 21.0843 53.3894 21.1601 53.4097 21.2409C53.4301 21.3116 53.4607 21.3772 53.5015 21.4378C53.6237 21.4277 53.7307 21.3722 53.8224 21.2712C53.9141 21.1702 53.9956 21.054 54.0669 20.9227C54.1484 20.7813 54.2198 20.645 54.2809 20.5137C54.3522 20.3723 54.4337 20.2612 54.5254 20.1804C54.5356 20.0693 54.556 19.9632 54.5866 19.8622C54.6273 19.7511 54.6477 19.64 54.6477 19.5289C54.7496 19.3572 54.8413 19.1956 54.9228 19.0441C55.0043 18.8926 55.0553 18.7108 55.0756 18.4987C55.1266 18.4584 55.1572 18.4281 55.1673 18.4079C55.1775 18.3776 55.2234 18.3725 55.3049 18.3927C55.3049 18.12 55.3457 17.8574 55.4272 17.6049C55.5189 17.3423 55.6411 17.0949 55.794 16.8626C55.8143 16.6303 55.8602 16.398 55.9315 16.1657C56.013 15.9233 56.1047 15.6859 56.2066 15.4536C56.2372 15.3829 56.2779 15.3021 56.3289 15.2112C56.3798 15.1102 56.4053 15.0193 56.4053 14.9385C56.4053 14.8981 56.3951 14.8628 56.3747 14.8325C56.3645 14.7921 56.3595 14.7517 56.3595 14.7113C56.3595 14.6305 56.39 14.5598 56.4512 14.4992C56.5123 14.4386 56.5683 14.378 56.6193 14.3174C56.6193 14.0851 56.6447 13.8528 56.6957 13.6205C56.7466 13.3882 56.8485 13.1862 57.0014 13.0145C57.0523 12.6711 57.1185 12.3378 57.2 12.0146C57.2816 11.6813 57.3987 11.3632 57.5516 11.0602H58.1018C58.1018 10.8683 58.1884 10.7723 58.3616 10.7723C58.4635 10.7723 58.5755 10.7976 58.6978 10.8481C58.7793 11.0703 58.8354 11.3228 58.8659 11.6056C58.9067 11.8783 58.9271 12.1308 58.9271 12.3631Z" fill="black"/>
<path d="M68.5709 13.5144V13.575C68.4996 13.5952 68.4639 13.6457 68.4639 13.7265C68.3518 13.777 68.2347 13.8174 68.1124 13.8477C67.9901 13.8679 67.873 13.9033 67.7609 13.9538C67.6488 13.9437 67.5316 13.9386 67.4094 13.9386C67.2973 13.9285 67.1852 13.9235 67.0731 13.9235C66.7675 13.9235 66.4618 13.9336 66.1561 13.9538C65.8505 13.974 65.5448 13.974 65.2391 13.9538C65.0965 14.0346 64.9385 14.1002 64.7653 14.1507C64.6023 14.1911 64.4444 14.2113 64.2915 14.2113C64.1693 14.2113 64.0623 14.1962 63.9706 14.1659C63.7261 14.2871 63.4561 14.3881 63.1606 14.4689C62.8753 14.5497 62.5849 14.6305 62.2894 14.7113C61.9939 14.782 61.7086 14.8678 61.4335 14.9688C61.1686 15.0597 60.9343 15.191 60.7305 15.3627C60.7101 15.5041 60.6948 15.6455 60.6847 15.7869C60.6745 15.9182 60.6694 16.0495 60.6694 16.1808C60.6694 16.3222 60.6745 16.4535 60.6847 16.5747C60.705 16.6959 60.7407 16.8171 60.7916 16.9383C60.8426 16.9585 60.8986 16.9737 60.9598 16.9838C61.0311 16.9939 61.0922 16.9989 61.1432 16.9989C61.1941 16.9989 61.245 16.9939 61.296 16.9838C61.3469 16.9636 61.3826 16.9282 61.403 16.8777C61.5558 16.8575 61.7086 16.8525 61.8615 16.8626C62.0143 16.8626 62.1672 16.8626 62.32 16.8626C62.4728 16.8626 62.6206 16.8575 62.7632 16.8474C62.916 16.8373 63.0638 16.8121 63.2064 16.7717C63.3694 16.7313 63.5274 16.706 63.6802 16.6959C63.8432 16.6858 64.0012 16.6757 64.154 16.6656C64.3068 16.6555 64.4648 16.6404 64.6278 16.6202C64.7908 16.5899 64.9589 16.5343 65.1321 16.4535C65.2646 16.504 65.397 16.5293 65.5295 16.5293C65.6721 16.5293 65.8097 16.5394 65.9422 16.5596C66.0135 16.6101 66.0695 16.6656 66.1103 16.7262C66.1612 16.7868 66.1867 16.8575 66.1867 16.9383C66.1867 17.0797 66.1357 17.2211 66.0339 17.3625C65.932 17.5039 65.8505 17.6352 65.7893 17.7564H65.6212C65.3767 17.7564 65.1372 17.7918 64.9029 17.8625C64.6787 17.9231 64.4495 17.9988 64.2151 18.0897C63.991 18.1705 63.7617 18.2463 63.5274 18.317C63.3032 18.3776 63.0689 18.4079 62.8243 18.4079C62.7836 18.4079 62.7581 18.4331 62.7479 18.4836C62.7479 18.524 62.7377 18.5543 62.7174 18.5745C62.6664 18.5644 62.59 18.5593 62.4881 18.5593C62.2538 18.5593 62.0296 18.5846 61.8156 18.6351C61.6017 18.6856 61.3826 18.7108 61.1584 18.7108C61.0973 18.7108 61.0362 18.7108 60.975 18.7108C60.9139 18.7007 60.8528 18.6906 60.7916 18.6805C60.7407 18.7613 60.6745 18.8169 60.593 18.8472C60.5114 18.8674 60.435 18.9078 60.3637 18.9684C60.3331 19.0593 60.3128 19.1704 60.3026 19.3017C60.3026 19.433 60.2975 19.5693 60.2873 19.7107C60.2873 19.842 60.2771 19.9683 60.2567 20.0895C60.2363 20.2107 60.1956 20.3066 60.1345 20.3773C60.1446 20.4278 60.1854 20.448 60.2567 20.4379C60.328 20.4177 60.3637 20.448 60.3637 20.5288C60.3637 20.6197 60.3535 20.7157 60.3331 20.8167C60.3128 20.9177 60.3026 21.0187 60.3026 21.1197C60.3026 21.3116 60.3229 21.5237 60.3637 21.756C60.4146 21.9782 60.486 22.1852 60.5777 22.3771C60.6796 22.569 60.812 22.7306 60.975 22.8619C61.1381 22.9831 61.3418 23.0437 61.5864 23.0437C61.7494 23.0437 61.9022 23.0134 62.0449 22.9528C62.1875 22.8922 62.3047 22.7912 62.3964 22.6498L62.4728 22.6347C62.5136 22.6347 62.5492 22.6397 62.5798 22.6498C62.6206 22.6599 62.6613 22.665 62.7021 22.665C62.7632 22.665 62.8396 22.6296 62.9313 22.5589C63.0332 22.4781 63.1402 22.3872 63.2523 22.2862C63.3745 22.1852 63.4968 22.0893 63.6191 21.9984C63.7413 21.8974 63.8585 21.8267 63.9706 21.7863C64.0419 21.6449 64.1081 21.5035 64.1693 21.3621C64.2406 21.2207 64.3425 21.1096 64.4749 21.0288V20.5894C64.5768 20.4783 64.6838 20.3773 64.7959 20.2864C64.9182 20.1955 65.0099 20.0794 65.071 19.938C65.1219 19.9582 65.1678 19.9733 65.2085 19.9834C65.2595 19.9935 65.3104 19.9986 65.3614 19.9986C65.4123 19.9986 65.4633 19.9935 65.5142 19.9834C65.5754 19.9733 65.6314 19.9582 65.6823 19.938C65.7639 20.0491 65.825 20.1753 65.8657 20.3167C65.9167 20.448 65.9778 20.5743 66.0491 20.6955C65.9574 20.8773 65.8505 21.0944 65.7282 21.3469C65.6059 21.5994 65.4735 21.8519 65.3308 22.1044C65.1882 22.3569 65.0353 22.5993 64.8723 22.8316C64.7195 23.0538 64.5666 23.2255 64.4138 23.3467C64.3832 23.377 64.317 23.4124 64.2151 23.4528C64.1031 23.5336 64.0012 23.6093 63.9095 23.68C63.8178 23.7608 63.7312 23.8517 63.6496 23.9527C63.3542 24.0436 63.0689 24.1648 62.7938 24.3163C62.5289 24.4678 62.2639 24.6142 61.999 24.7556C61.8768 24.7253 61.7443 24.7102 61.6017 24.7102C61.4794 24.7102 61.3571 24.7152 61.2349 24.7253C61.1126 24.7455 60.9801 24.7556 60.8375 24.7556C60.7967 24.7051 60.7356 24.6698 60.6541 24.6496C60.5828 24.6395 60.5573 24.589 60.5777 24.4981C60.2313 24.4779 59.9511 24.3819 59.7371 24.2102C59.5231 24.0487 59.3397 23.8467 59.1869 23.6043C59.0442 23.3619 58.9271 23.0993 58.8354 22.8165C58.7437 22.5337 58.6469 22.261 58.545 21.9984V21.9529C58.545 21.9024 58.5654 21.8721 58.6061 21.862C58.6469 21.8519 58.6672 21.8216 58.6672 21.7711C58.6672 21.7509 58.6622 21.7358 58.652 21.7257C58.6214 21.6146 58.5959 21.5186 58.5755 21.4378C58.5552 21.357 58.545 21.2611 58.545 21.15C58.545 20.9884 58.5552 20.8318 58.5755 20.6803C58.5959 20.5187 58.6061 20.3571 58.6061 20.1955C58.6061 20.0339 58.5857 19.8925 58.545 19.7713C58.5857 19.7208 58.6214 19.6552 58.652 19.5744C58.6723 19.4835 58.6876 19.3926 58.6978 19.3017C58.708 19.2108 58.7131 19.1199 58.7131 19.029C58.7233 18.9381 58.7386 18.8573 58.7589 18.7866C58.7182 18.6755 58.6825 18.5795 58.652 18.4987C58.6214 18.4079 58.6061 18.3018 58.6061 18.1806V18.0746C58.708 17.9029 58.7946 17.7261 58.8659 17.5443C58.9373 17.3625 59.0137 17.1757 59.0952 16.9838V16.9383C59.0952 16.6454 59.085 16.3525 59.0646 16.0596C59.0442 15.7667 59.034 15.4738 59.034 15.1809V14.8931C59.034 14.7921 59.0391 14.6961 59.0493 14.6052C59.1308 14.5648 59.192 14.5093 59.2327 14.4386C59.2735 14.3679 59.3346 14.3123 59.4161 14.2719H59.9205L60.0122 14.1204C60.0428 14.0699 60.0631 14.0144 60.0733 13.9538C60.1854 13.9235 60.2924 13.8831 60.3943 13.8326C60.5064 13.772 60.6082 13.7114 60.6999 13.6508C60.8426 13.57 60.9699 13.4993 61.082 13.4387C61.2043 13.368 61.3215 13.3124 61.4335 13.272C61.5558 13.2215 61.6832 13.1811 61.8156 13.1508C61.9481 13.1205 62.1009 13.0953 62.2741 13.0751C62.3556 13.0751 62.4066 13.0599 62.427 13.0296C62.4575 12.9993 62.4983 12.964 62.5492 12.9236C62.6715 12.9438 62.7938 12.964 62.916 12.9842C63.0383 12.9943 63.1606 12.9993 63.2828 12.9993C63.5274 12.9993 63.7566 12.9539 63.9706 12.863C64.2763 12.863 64.5768 12.8579 64.8723 12.8478C65.178 12.8377 65.4837 12.8327 65.7893 12.8327C66.0542 12.8327 66.3191 12.8428 66.5841 12.863C66.849 12.8832 67.1088 12.9185 67.3635 12.969C67.4552 12.9387 67.5571 12.9236 67.6692 12.9236C67.7914 12.9236 67.9137 12.9387 68.036 12.969C68.1684 12.9892 68.2958 12.9892 68.4181 12.969C68.4283 13.0801 68.4537 13.1761 68.4945 13.2569C68.5454 13.3276 68.5709 13.4134 68.5709 13.5144Z" fill="black"/>
<path d="M87.3848 20.5137C87.3644 20.6652 87.3084 20.7813 87.2167 20.8621C87.1352 20.9429 87.0384 21.0187 86.9263 21.0894C86.8753 21.0793 86.8244 21.0742 86.7735 21.0742C86.7327 21.0641 86.6869 21.0591 86.6359 21.0591C86.32 21.049 86.0195 21.0894 85.7342 21.1803C85.4591 21.2712 85.1738 21.3368 84.8783 21.3772C84.7764 21.3974 84.6796 21.4075 84.5879 21.4075C84.5064 21.3974 84.4198 21.4025 84.3281 21.4227C84.0021 21.4732 83.6556 21.5136 83.2888 21.5439C82.922 21.5742 82.5552 21.6146 82.1884 21.6651C81.8216 21.7055 81.4599 21.761 81.1033 21.8317C80.7569 21.8923 80.4308 21.9832 80.1252 22.1044C80.0946 22.0842 80.064 22.064 80.0335 22.0438C80.0029 22.0135 79.9672 21.9984 79.9265 21.9984C79.8246 21.9984 79.7278 22.0135 79.6361 22.0438C79.5444 22.0741 79.4527 22.0842 79.361 22.0741C79.2591 22.1347 79.147 22.1802 79.0248 22.2105C78.9127 22.2307 78.7955 22.2509 78.6732 22.2711C78.5612 22.2812 78.4491 22.3014 78.337 22.3317C78.2249 22.362 78.1179 22.4175 78.0161 22.4983C77.9345 22.4579 77.8327 22.4377 77.7104 22.4377C77.5983 22.4276 77.5219 22.3872 77.4811 22.3165C77.2468 22.4276 76.9972 22.4983 76.7323 22.5286C76.4775 22.5589 76.2177 22.569 75.9528 22.5589C75.7796 22.5488 75.5809 22.5236 75.3567 22.4832C75.1326 22.4428 74.9084 22.3872 74.6843 22.3165C74.4601 22.2357 74.2512 22.1448 74.0577 22.0438C73.8641 21.9327 73.7163 21.8014 73.6144 21.6499C73.5431 21.5489 73.4922 21.4378 73.4616 21.3166C73.431 21.1954 73.3597 21.1045 73.2476 21.0439C73.2782 20.8116 73.3139 20.5844 73.3546 20.3622C73.3954 20.14 73.4361 19.9127 73.4769 19.6804C73.6807 19.5087 73.8743 19.3269 74.0577 19.135C74.2411 18.9431 74.4143 18.7411 74.5773 18.529C74.7709 18.4381 74.9492 18.3271 75.1122 18.1958C75.2854 18.0645 75.4535 17.9332 75.6166 17.8019C75.7898 17.6605 75.9579 17.5241 76.1209 17.3928C76.2941 17.2615 76.4775 17.1454 76.6711 17.0444C76.7017 16.9737 76.7424 16.9181 76.7934 16.8777C76.8545 16.8272 76.9157 16.7818 76.9768 16.7414C77.0379 16.6909 77.094 16.6404 77.1449 16.5899C77.1958 16.5293 77.2315 16.4586 77.2519 16.3778C77.6085 16.1657 77.9193 15.898 78.1842 15.5748C78.4491 15.2516 78.6223 14.888 78.7038 14.484C78.5306 14.3426 78.3319 14.2517 78.1078 14.2113C77.8938 14.1608 77.6696 14.1255 77.4353 14.1053C77.2315 14.0952 77.0175 14.0952 76.7934 14.1053C76.5794 14.1154 76.3604 14.1103 76.1362 14.0901C75.912 14.1608 75.6777 14.2063 75.4332 14.2265C75.1988 14.2467 74.9645 14.2669 74.7301 14.2871C74.4958 14.2972 74.2614 14.3275 74.0271 14.378C73.8029 14.4184 73.5839 14.4992 73.3699 14.6204C73.3291 14.6204 73.2884 14.6153 73.2476 14.6052C73.2171 14.5951 73.1814 14.5901 73.1406 14.5901C72.8146 14.58 72.5089 14.6456 72.2236 14.787C71.9383 14.9183 71.6582 15.0496 71.3831 15.1809C71.3627 15.2213 71.3525 15.2516 71.3525 15.2718C71.3525 15.3324 71.3627 15.393 71.3831 15.4536C71.4136 15.5041 71.4289 15.5597 71.4289 15.6203C71.4187 15.6304 71.4136 15.6405 71.4136 15.6506C71.4136 15.6607 71.4085 15.6708 71.3983 15.6809C71.3881 15.7314 71.3729 15.7768 71.3525 15.8172C71.3423 15.8576 71.327 15.9031 71.3066 15.9536C71.1946 16.2768 71.1334 16.5949 71.1232 16.908C71.113 17.1706 71.113 17.4282 71.1232 17.6807C71.1334 17.9332 71.1334 18.1907 71.1232 18.4533C71.1029 18.7765 71.0519 19.0795 70.9704 19.3623C71.0213 19.6047 71.0672 19.8622 71.108 20.1349C71.1487 20.3975 71.1997 20.6601 71.2608 20.9227C71.3219 21.1853 71.3932 21.4429 71.4748 21.6954C71.5665 21.9378 71.6836 22.1701 71.8263 22.3923C71.8161 22.4125 71.8212 22.4276 71.8416 22.4377C71.8619 22.4478 71.8823 22.4529 71.9027 22.4529H72.025C72.0759 22.4529 72.0963 22.4731 72.0861 22.5135C72.1065 22.5438 72.1217 22.5741 72.1319 22.6044C72.1421 22.6246 72.1625 22.6448 72.1931 22.665C72.2135 22.6953 72.2135 22.7357 72.1931 22.7862C72.1829 22.9882 72.1319 23.175 72.0402 23.3467C71.9485 23.5184 71.8925 23.7053 71.8721 23.9073C71.7499 23.9376 71.6378 23.9527 71.5359 23.9527C71.3627 23.9426 71.2098 23.8921 71.0774 23.8012C70.9449 23.7204 70.8227 23.6194 70.7106 23.4982C70.5985 23.377 70.4915 23.2558 70.3896 23.1346C70.2877 23.0033 70.1757 22.8922 70.0534 22.8013C69.9821 22.5185 69.9108 22.2054 69.8394 21.862C69.7783 21.5186 69.6713 21.2257 69.5185 20.9833C69.5592 20.8924 69.5796 20.7813 69.5796 20.65C69.5898 20.448 69.5694 20.2511 69.5185 20.0592C69.4777 19.8572 69.4675 19.6552 69.4879 19.4532C69.4879 19.3421 69.4981 19.231 69.5185 19.1199C69.549 19.0088 69.5694 18.8977 69.5796 18.7866C69.5898 18.6149 69.5694 18.4482 69.5185 18.2867C69.4777 18.1251 69.4624 17.9584 69.4726 17.7867C69.4828 17.7059 69.4981 17.6302 69.5185 17.5595C69.549 17.4787 69.5898 17.408 69.6407 17.3474C69.5898 17.2262 69.5745 17.11 69.5949 16.9989C69.6051 16.8272 69.6255 16.6656 69.656 16.5141C69.6866 16.3626 69.707 16.2111 69.7172 16.0596C69.7172 15.9788 69.7121 15.9031 69.7019 15.8324C69.6917 15.7516 69.6764 15.6758 69.656 15.6051L69.5185 15.5597C69.4573 15.5597 69.3962 15.5748 69.3351 15.6051C69.2841 15.6354 69.2383 15.6708 69.1975 15.7112C69.1568 15.7516 69.1211 15.7869 69.0905 15.8172C69.06 15.8374 69.0294 15.8475 68.9988 15.8475C68.9785 15.8475 68.953 15.8475 68.9224 15.8475C68.902 15.8374 68.8817 15.8324 68.8613 15.8324C68.8409 15.8324 68.8002 15.8526 68.739 15.893C68.6881 15.9334 68.6218 15.9788 68.5403 16.0293C68.469 16.0697 68.3977 16.1152 68.3264 16.1657C68.255 16.2061 68.199 16.2313 68.1583 16.2414C68.0462 16.2212 67.9545 16.1859 67.8831 16.1354C67.822 16.0748 67.7609 16.0192 67.6997 15.9687C67.6488 15.9081 67.5928 15.8576 67.5316 15.8172C67.4705 15.7667 67.3941 15.7465 67.3024 15.7566C67.2718 15.696 67.2565 15.6304 67.2565 15.5597C67.2463 15.489 67.2463 15.4183 67.2565 15.3476V15.1052C67.3279 14.9739 67.4246 14.8678 67.5469 14.787C67.659 14.6961 67.7813 14.6204 67.9137 14.5598L68.3111 14.378C68.4435 14.3174 68.5658 14.2416 68.6779 14.1507H68.8154C68.9988 14.1608 69.1568 14.1255 69.2892 14.0447C69.4319 13.9639 69.5643 13.873 69.6866 13.772C69.8089 13.6609 69.9311 13.5498 70.0534 13.4387C70.1859 13.3276 70.3285 13.2417 70.4813 13.1811C70.5934 13.2316 70.7106 13.2771 70.8329 13.3175C70.9551 13.3478 71.0825 13.368 71.2149 13.3781C71.3474 13.3781 71.4849 13.3579 71.6276 13.3175C71.7702 13.2771 71.8823 13.2013 71.9638 13.0902C72.0148 13.1104 72.0555 13.1256 72.0861 13.1357C72.1268 13.1357 72.1727 13.1357 72.2236 13.1357C72.3765 13.1458 72.5293 13.1256 72.6821 13.0751C72.835 13.0145 72.9827 12.9438 73.1254 12.863C73.3291 12.8731 73.5278 12.863 73.7214 12.8327C73.9252 12.7923 74.1239 12.7519 74.3175 12.7115C74.5212 12.6711 74.7199 12.6358 74.9135 12.6055C75.1173 12.5651 75.3211 12.5499 75.5249 12.56C75.8611 12.5701 76.1922 12.5398 76.5183 12.4691C76.8443 12.3984 77.1755 12.3732 77.5117 12.3934C77.746 12.4035 77.9753 12.4237 78.1995 12.454C78.4338 12.4742 78.6682 12.4792 78.9025 12.4691C79.035 12.5297 79.1521 12.5853 79.254 12.6358C79.3661 12.6762 79.5036 12.6863 79.6667 12.6661C79.9927 12.9387 80.2882 13.2569 80.5531 13.6205V13.878C80.5429 14.1103 80.5022 14.3376 80.4308 14.5598C80.3595 14.782 80.2729 15.0042 80.171 15.2264C80.0793 15.4385 79.9774 15.6506 79.8654 15.8627C79.7533 16.0647 79.6463 16.2667 79.5444 16.4687C78.8821 17.0646 78.2198 17.6554 77.5576 18.2412C76.8953 18.827 76.2126 19.3926 75.5096 19.938C75.4892 20.039 75.4586 20.1299 75.4179 20.2107C75.3873 20.2915 75.3669 20.3773 75.3567 20.4682C75.3567 20.5187 75.3618 20.5591 75.372 20.5894C75.4433 20.6096 75.5045 20.65 75.5554 20.7106C75.6166 20.7611 75.6369 20.8318 75.6166 20.9227H75.7541C75.8051 20.9227 75.8305 20.9429 75.8305 20.9833L76.0751 20.9985C76.4622 21.0187 76.8494 21.0086 77.2366 20.9682C77.6238 20.9278 78.011 20.8823 78.3981 20.8318C78.7955 20.7813 79.1878 20.7359 79.575 20.6955C79.9621 20.645 80.3493 20.6147 80.7365 20.6046C80.8282 20.5743 80.925 20.549 81.0269 20.5288C81.1288 20.5086 81.2205 20.4682 81.302 20.4076H81.3478C81.4192 20.4076 81.4701 20.4278 81.5007 20.4682C81.5414 20.5086 81.5975 20.5339 81.6688 20.544C81.7197 20.544 81.7707 20.5339 81.8216 20.5137C81.8828 20.4935 81.9439 20.4783 82.005 20.4682C82.1477 20.4278 82.2954 20.4026 82.4482 20.3925C82.6113 20.3824 82.7692 20.3672 82.922 20.347C83.513 20.2965 84.0989 20.2662 84.6796 20.2561C85.2604 20.2359 85.8412 20.1602 86.4219 20.0289C86.4729 20.0996 86.5442 20.1501 86.6359 20.1804C86.7276 20.2006 86.8244 20.2258 86.9263 20.2561C87.0282 20.2763 87.1199 20.3016 87.2014 20.3319C87.2931 20.3622 87.3542 20.4228 87.3848 20.5137Z" fill="black"/>
<path d="M93.1008 13.1963C93.0804 13.3175 93.0499 13.4235 93.0091 13.5144C92.9785 13.5952 92.9734 13.7063 92.9938 13.8477C92.8919 13.8578 92.8104 13.8932 92.7493 13.9538C92.6983 14.0043 92.6525 14.0649 92.6117 14.1356C92.5812 14.2063 92.5455 14.282 92.5047 14.3628C92.4742 14.4335 92.4334 14.4992 92.3825 14.5598C92.464 14.9234 92.5098 15.292 92.52 15.6657C92.5302 16.0394 92.5557 16.4081 92.5964 16.7717C92.6474 17.2363 92.7238 17.6958 92.8257 18.1503C92.9378 18.5947 92.9938 19.0492 92.9938 19.5138C92.9938 19.6552 92.9887 19.7865 92.9785 19.9077C92.9785 20.0289 92.9785 20.1551 92.9785 20.2864C92.9785 20.3672 92.9785 20.4531 92.9785 20.544C92.9887 20.6248 92.9938 20.7056 92.9938 20.7864C92.9938 21.0793 92.9531 21.3722 92.8715 21.6651C92.8002 21.958 92.7442 22.2509 92.7034 22.5438C92.5812 22.6549 92.4742 22.7761 92.3825 22.9074C92.301 23.0387 92.2144 23.1599 92.1227 23.271C92.031 23.3821 91.924 23.478 91.8017 23.5588C91.6794 23.6497 91.5266 23.7103 91.3432 23.7406C91.3126 23.8416 91.2515 23.9174 91.1598 23.9679C91.0783 24.0184 91.007 24.089 90.9458 24.1799H90.9153C90.6605 24.1799 90.4415 24.1446 90.2581 24.0739C90.0747 24.0032 89.9015 23.9224 89.7384 23.8315C89.5856 23.7406 89.4277 23.6447 89.2647 23.5437C89.1016 23.4427 88.9131 23.3619 88.6992 23.3013C88.4139 23.069 88.1541 22.8165 87.9197 22.5438C87.6854 22.261 87.4205 22.0085 87.125 21.7863C87.0537 21.5843 86.9569 21.4176 86.8346 21.2863C86.7225 21.155 86.6104 21.0035 86.4984 20.8318C86.4474 20.7611 86.4067 20.6955 86.3761 20.6349C86.3557 20.5743 86.3251 20.5036 86.2844 20.4228C86.2538 20.342 86.2029 20.2864 86.1316 20.2561C86.0704 20.2258 86.0144 20.1905 85.9634 20.1501C85.8819 19.837 85.7647 19.5491 85.6119 19.2865C85.4591 19.0239 85.2808 18.7714 85.077 18.529C85.0159 18.6401 84.9649 18.7613 84.9242 18.8926C84.8936 19.0138 84.863 19.1401 84.8325 19.2714C84.8019 19.3926 84.7611 19.5188 84.7102 19.6501C84.6694 19.7713 84.6134 19.8824 84.5421 19.9834V20.0289C84.5421 20.0794 84.5625 20.1097 84.6032 20.1198C84.644 20.1299 84.6643 20.1602 84.6643 20.2107C84.6643 20.2208 84.6593 20.2309 84.6491 20.241C84.6491 20.2511 84.6491 20.2612 84.6491 20.2713C84.5981 20.3117 84.5574 20.3622 84.5268 20.4228C84.5064 20.4834 84.4555 20.5187 84.374 20.5288C84.3841 20.5793 84.3892 20.6298 84.3892 20.6803V20.8167C84.3892 21.1096 84.3536 21.4025 84.2823 21.6954C84.2211 21.9883 84.1906 22.2862 84.1906 22.5892V22.7862C84.1906 22.8569 84.1957 22.9225 84.2058 22.9831C84.2262 23.0437 84.2568 23.1043 84.2975 23.1649C84.3383 23.2255 84.3587 23.2811 84.3587 23.3316C84.3587 23.4023 84.3281 23.4679 84.267 23.5285C84.3383 23.579 84.4198 23.6346 84.5115 23.6952C84.6032 23.7558 84.6847 23.8214 84.756 23.8921C84.8376 23.9729 84.9038 24.0537 84.9547 24.1345C85.0057 24.2254 85.0311 24.3213 85.0311 24.4223C85.0311 24.594 84.9751 24.7152 84.863 24.7859C84.751 24.8566 84.6134 24.9122 84.4504 24.9526C84.2975 24.993 84.1345 25.0283 83.9613 25.0586C83.7983 25.099 83.6607 25.1647 83.5487 25.2556H83.5028C83.3805 25.2556 83.2888 25.2202 83.2277 25.1495C83.1666 25.0788 83.0749 25.0435 82.9526 25.0435C82.759 24.7304 82.6266 24.3769 82.5552 23.983C82.4839 23.5992 82.4482 23.2306 82.4482 22.8771C82.4482 22.4428 82.489 22.0085 82.5705 21.5742C82.6418 21.1399 82.7335 20.7106 82.8456 20.2864C82.9475 19.8622 83.0596 19.4431 83.1819 19.029C83.3143 18.6048 83.4366 18.1806 83.5487 17.7564L83.5639 17.711C83.5639 17.6605 83.5487 17.6251 83.5181 17.6049C83.4977 17.5847 83.4875 17.5544 83.4875 17.514C83.4875 17.4938 83.4926 17.4837 83.5028 17.4837C83.5334 17.3827 83.5639 17.2868 83.5945 17.1959C83.6353 17.105 83.6658 17.004 83.6862 16.8929C83.7473 16.6101 83.7881 16.3222 83.8085 16.0293C83.839 15.7263 83.8543 15.4284 83.8543 15.1355C83.8645 14.8426 83.8747 14.5497 83.8849 14.2568C83.9053 13.9538 83.9409 13.6558 83.9919 13.3629C84.0734 13.2821 84.1498 13.1963 84.2211 13.1054C84.2924 13.0145 84.3841 12.9337 84.4962 12.863C84.7 12.8731 84.9038 12.9034 85.1076 12.9539C85.3113 13.0044 85.5049 13.0852 85.6883 13.1963C85.8106 13.6306 85.8921 14.0649 85.9329 14.4992C85.9838 14.9335 86.0653 15.3678 86.1774 15.8021V15.8475C86.1774 15.898 86.2029 15.9233 86.2538 15.9233C86.315 15.9132 86.3608 15.9283 86.3914 15.9687C86.371 15.999 86.3557 16.0344 86.3455 16.0748C86.3455 16.1152 86.3455 16.1556 86.3455 16.196V16.4535C86.3659 16.5343 86.3914 16.6202 86.4219 16.7111C86.4525 16.802 86.5187 16.8575 86.6206 16.8777C86.6716 17.2009 86.748 17.4989 86.8499 17.7716C86.9518 18.0443 87.0689 18.3069 87.2014 18.5593C87.3338 18.8118 87.4765 19.0643 87.6293 19.3168C87.7822 19.5592 87.9401 19.8168 88.1031 20.0895C88.3578 20.2814 88.5769 20.5036 88.7603 20.7561C88.9437 20.9985 89.1271 21.2358 89.3105 21.4681C89.5041 21.6903 89.7181 21.8873 89.9524 22.059C90.1969 22.2307 90.5128 22.3367 90.9 22.3771C90.9509 22.3367 90.9866 22.2812 91.007 22.2105L91.0834 21.9984C91.1139 21.9277 91.1445 21.8671 91.1751 21.8166C91.2158 21.756 91.2719 21.7105 91.3432 21.6802C91.3636 21.3974 91.384 21.1096 91.4043 20.8167C91.4349 20.5238 91.5011 20.246 91.603 19.9834C91.5521 19.8925 91.5266 19.7814 91.5266 19.6501C91.5266 19.5491 91.5317 19.4532 91.5419 19.3623C91.5623 19.2714 91.5724 19.1805 91.5724 19.0896C91.5724 18.8977 91.5317 18.7411 91.4502 18.6199C91.4502 18.5492 91.4553 18.4785 91.4655 18.4079C91.4757 18.3271 91.5062 18.2513 91.5572 18.1806C91.4757 17.9786 91.4094 17.7665 91.3585 17.5443C91.3177 17.3221 91.2973 17.0949 91.2973 16.8626C91.2973 16.7313 91.3126 16.5949 91.3432 16.4535C91.2821 16.302 91.2413 16.1253 91.2209 15.9233L91.1598 15.3021C91.1394 15.09 91.1089 14.8931 91.0681 14.7113C91.0273 14.5295 90.9509 14.383 90.8388 14.2719C90.9 14.181 90.9305 14.075 90.9305 13.9538C90.9305 13.7518 90.9 13.5599 90.8388 13.3781C90.7777 13.1963 90.7471 13.0044 90.7471 12.8024C90.7471 12.661 90.7777 12.5196 90.8388 12.3782C91.063 12.3883 91.2821 12.4136 91.496 12.454C91.7202 12.4843 91.9393 12.4994 92.1532 12.4994C92.2144 12.5802 92.2857 12.6459 92.3672 12.6964C92.4487 12.7468 92.5353 12.7973 92.627 12.8478C92.7187 12.8882 92.8053 12.9337 92.8868 12.9842C92.9785 13.0347 93.0498 13.1054 93.1008 13.1963Z" fill="black"/>
<path d="M106 22.0438C105.969 22.1852 105.903 22.3014 105.801 22.3923C105.71 22.4731 105.598 22.5387 105.465 22.5892C105.333 22.6397 105.195 22.6751 105.052 22.6953C104.92 22.7054 104.798 22.7104 104.686 22.7104C104.635 22.7104 104.584 22.7104 104.533 22.7104C104.492 22.7003 104.446 22.6953 104.395 22.6953C104.344 22.6953 104.319 22.7205 104.319 22.771C104.319 22.8215 104.293 22.8569 104.242 22.8771C104.191 22.8569 104.141 22.8417 104.09 22.8316C104.039 22.8215 103.988 22.8165 103.937 22.8165C103.865 22.8165 103.794 22.8215 103.723 22.8316C103.662 22.8417 103.601 22.8468 103.539 22.8468C103.458 22.8468 103.397 22.8367 103.356 22.8165C103.325 22.7963 103.295 22.7761 103.264 22.7559C103.244 22.7256 103.218 22.6953 103.188 22.665C103.167 22.6347 103.132 22.6094 103.081 22.5892C103.01 22.5589 102.948 22.5539 102.897 22.5741C102.857 22.5943 102.79 22.564 102.699 22.4832C102.577 22.3822 102.47 22.261 102.378 22.1196C102.296 21.9681 102.215 21.8115 102.133 21.6499C102.052 21.4883 101.965 21.3267 101.873 21.1651C101.782 21.0035 101.675 20.8621 101.553 20.7409H101.43C101.247 20.7409 101.119 20.8167 101.048 20.9682C100.997 20.9379 100.946 20.9025 100.895 20.8621C100.844 20.8116 100.788 20.7712 100.727 20.7409C100.493 20.8116 100.248 20.8722 99.9936 20.9227C99.7389 20.9732 99.4842 20.9985 99.2294 20.9985H99.0155C98.9543 20.9985 98.8881 20.9884 98.8168 20.9682C98.7149 21.0086 98.6232 21.0591 98.5417 21.1197C98.4602 21.1702 98.3685 21.1954 98.2666 21.1954C98.2055 21.1954 98.1341 21.1752 98.0526 21.1348C97.9915 21.1348 97.9609 21.1601 97.9609 21.2106C97.9711 21.2611 97.9405 21.2863 97.8692 21.2863H97.7317C97.589 21.2863 97.4464 21.2914 97.3037 21.3015C97.1713 21.3116 97.0337 21.3166 96.8911 21.3166C96.6975 21.3166 96.4988 21.2914 96.295 21.2409C96.2441 21.2712 96.188 21.2863 96.1269 21.2863C96.0862 21.3065 96.0556 21.3419 96.0352 21.3924C96.0148 21.4328 95.9945 21.4732 95.9741 21.5136C95.9537 21.5439 95.9231 21.5742 95.8824 21.6045C95.8518 21.6247 95.806 21.6297 95.7448 21.6196C95.7244 21.7408 95.6735 21.8368 95.592 21.9075C95.5105 21.9782 95.4697 22.0842 95.4697 22.2256C95.3576 22.2862 95.2659 22.362 95.1946 22.4529C95.1233 22.5438 95.052 22.6397 94.9807 22.7407C94.9093 22.8417 94.8329 22.9377 94.7514 23.0286C94.6801 23.1195 94.5884 23.1902 94.4763 23.2407C94.4254 23.3013 94.4101 23.3972 94.4305 23.5285C94.3184 23.6194 94.1808 23.7002 94.0178 23.7709C93.8548 23.8416 93.7019 23.877 93.5593 23.877C93.2638 23.877 93.06 23.7204 92.948 23.4073C92.948 23.3063 92.9581 23.2003 92.9785 23.0892C92.9887 22.968 93.0091 22.8569 93.0397 22.7559C93.0702 22.6448 93.1161 22.5488 93.1772 22.468C93.2383 22.3771 93.3249 22.3115 93.437 22.2711C93.437 22.1802 93.4065 22.1196 93.3453 22.0893C93.2842 22.0489 93.2587 21.9832 93.2689 21.8923C93.544 21.761 93.7834 21.5893 93.9872 21.3772C94.191 21.1651 94.3744 20.9429 94.5374 20.7106C94.7106 20.4682 94.8839 20.2258 95.0571 19.9834C95.2303 19.741 95.4239 19.5239 95.6378 19.332V19.0138C95.9435 18.6906 96.1422 18.3271 96.2339 17.9231C96.346 17.9029 96.4173 17.8524 96.4479 17.7716C96.4886 17.6908 96.509 17.5948 96.509 17.4837C96.5599 17.4837 96.5905 17.4635 96.6007 17.4231C96.6211 17.3726 96.6669 17.3575 96.7383 17.3777C96.83 17.1353 96.9318 16.9131 97.0439 16.7111C97.156 16.5091 97.2681 16.3071 97.3801 16.1051C97.4922 15.893 97.589 15.6758 97.6705 15.4536C97.7622 15.2314 97.8285 14.984 97.8692 14.7113C98.0119 14.7012 98.0883 14.6355 98.0985 14.5143C98.1189 14.383 98.1392 14.2669 98.1596 14.1659C98.3124 14.0245 98.4245 13.8578 98.4958 13.6659C98.5774 13.474 98.6487 13.2771 98.7098 13.0751C98.7709 12.863 98.8372 12.656 98.9085 12.454C98.99 12.2419 99.1021 12.055 99.2447 11.8934V11.848C99.2447 11.7975 99.2243 11.7672 99.1836 11.7571C99.1428 11.7369 99.1225 11.7015 99.1225 11.651C99.1326 11.6409 99.1377 11.6308 99.1377 11.6207C99.26 11.5702 99.3517 11.4894 99.4128 11.3783C99.474 11.2571 99.5657 11.1713 99.688 11.1208C99.9019 11.2925 100.09 11.3985 100.253 11.4389C100.416 11.4692 100.63 11.4945 100.895 11.5147C101.028 11.6561 101.099 11.8278 101.109 12.0298C101.13 12.2217 101.165 12.4136 101.216 12.6055C101.298 12.9286 101.384 13.2468 101.476 13.5599C101.578 13.8629 101.654 14.176 101.705 14.4992C101.736 14.6911 101.792 14.8729 101.873 15.0446C101.955 15.2163 102.011 15.393 102.042 15.5748C102.062 15.7162 102.062 15.8778 102.042 16.0596C102.021 16.2313 102.042 16.3828 102.103 16.5141L102.21 16.7565C102.261 16.8676 102.301 16.9838 102.332 17.105C102.373 17.2262 102.408 17.3474 102.439 17.4686C102.52 17.7716 102.592 18.0998 102.653 18.4533C102.724 18.7967 102.831 19.1098 102.974 19.3926C103.025 19.4936 103.101 19.5643 103.203 19.6047C103.315 19.6451 103.437 19.6754 103.57 19.6956C103.702 19.7057 103.83 19.7107 103.952 19.7107C104.084 19.7006 104.197 19.6956 104.288 19.6956H104.441C104.502 19.6956 104.563 19.7057 104.624 19.7259C104.665 19.8067 104.686 19.8774 104.686 19.938C104.686 20.0592 104.645 20.1551 104.563 20.2258C104.482 20.2965 104.441 20.3773 104.441 20.4682C104.441 20.5187 104.461 20.5743 104.502 20.6349C104.461 20.6248 104.4 20.6197 104.319 20.6197C104.084 20.6197 103.855 20.6601 103.631 20.7409C103.713 20.9126 103.82 21.0591 103.952 21.1803C104.095 21.2914 104.242 21.3974 104.395 21.4984C104.497 21.4176 104.604 21.3772 104.716 21.3772C104.838 21.3772 104.951 21.4075 105.052 21.4681C105.165 21.5186 105.282 21.5439 105.404 21.5439C105.496 21.5439 105.562 21.5287 105.603 21.4984C105.684 21.5893 105.75 21.6853 105.801 21.7863C105.852 21.8772 105.918 21.963 106 22.0438ZM101.216 19.6198C101.196 19.4481 101.16 19.3269 101.109 19.2562C101.069 19.1754 101.033 19.0795 101.002 18.9684C100.962 18.827 100.931 18.6755 100.911 18.5139C100.9 18.3523 100.88 18.1958 100.849 18.0443C100.778 17.7009 100.697 17.3575 100.605 17.0141C100.523 16.6707 100.416 16.3374 100.284 16.0142C100.325 15.9536 100.345 15.898 100.345 15.8475V15.8021C100.253 15.7011 100.187 15.5799 100.146 15.4385C100.106 15.287 100.065 15.1405 100.024 14.9991C99.9936 14.8476 99.9478 14.7113 99.8866 14.5901C99.8357 14.4588 99.7491 14.3527 99.6268 14.2719C99.5962 14.3325 99.581 14.4032 99.581 14.484C99.581 14.5547 99.5861 14.6204 99.5962 14.681C99.6166 14.7416 99.6268 14.8072 99.6268 14.8779C99.5249 14.9284 99.4485 15.0092 99.3976 15.1203C99.3568 15.2213 99.2855 15.3021 99.1836 15.3627C99.1021 15.6859 98.9849 15.994 98.8321 16.2869C98.6792 16.5697 98.5162 16.8525 98.343 17.1353C98.18 17.4181 98.0221 17.7059 97.8692 17.9988C97.7164 18.2816 97.5941 18.5795 97.5024 18.8926C97.37 18.9835 97.2783 19.0997 97.2273 19.2411C97.1866 19.3825 97.1662 19.5239 97.1662 19.6653C97.2579 19.7158 97.3598 19.7461 97.4718 19.7562C97.5941 19.7562 97.7113 19.7562 97.8234 19.7562C97.9355 19.7562 98.0424 19.7663 98.1443 19.7865C98.2462 19.8067 98.3379 19.8572 98.4194 19.938C98.5519 19.8976 98.6945 19.8723 98.8474 19.8622C99.0104 19.842 99.1428 19.7966 99.2447 19.7259C99.4485 19.7966 99.6676 19.8319 99.9019 19.8319C100.024 19.8319 100.141 19.8218 100.253 19.8016C100.376 19.7814 100.493 19.7562 100.605 19.7259C100.697 19.7461 100.768 19.7814 100.819 19.8319C100.87 19.8723 100.946 19.8875 101.048 19.8774C101.099 19.837 101.13 19.7966 101.14 19.7562C101.15 19.7057 101.176 19.6602 101.216 19.6198Z" fill="black"/>
<path d="M34.1068 43.6517C34.1068 43.8133 34.0508 43.9597 33.9387 44.091C33.8266 44.2223 33.7298 44.3486 33.6483 44.4698C33.5056 44.5405 33.3681 44.5809 33.2356 44.591C33.1134 44.6112 32.9809 44.6465 32.8383 44.697C32.7873 44.7071 32.7313 44.7425 32.6701 44.8031C32.5886 44.793 32.5071 44.7576 32.4256 44.697C32.3441 44.6465 32.2626 44.6112 32.1811 44.591C32.069 44.5506 31.9213 44.5253 31.7379 44.5152C31.5646 44.5051 31.4373 44.4546 31.3558 44.3637C31.2131 44.2223 31.0909 44.0355 30.989 43.8032C30.8973 43.5709 30.8209 43.3234 30.7597 43.0608C30.7088 42.7982 30.668 42.5407 30.6375 42.2882C30.6171 42.0256 30.6069 41.7983 30.6069 41.6064C30.6069 41.2832 30.6273 40.96 30.668 40.6368C30.7088 40.3136 30.7699 40.0005 30.8514 39.6975V39.6218C30.8514 39.5713 30.8514 39.5309 30.8514 39.5006C30.8616 39.4602 30.8667 39.4147 30.8667 39.3643C30.8667 39.334 30.8616 39.3036 30.8514 39.2733C30.8514 39.2431 30.8361 39.2178 30.8056 39.1976C30.938 38.8643 31.0348 38.5209 31.096 38.1674C31.1571 37.8139 31.2029 37.4604 31.2335 37.1069C31.2743 36.7433 31.315 36.3848 31.3558 36.0313C31.4067 35.6677 31.478 35.3142 31.5697 34.9708C31.5596 34.9102 31.5494 34.8445 31.5392 34.7738C31.5392 34.7031 31.5392 34.6375 31.5392 34.5769C31.5392 34.3951 31.5596 34.2183 31.6003 34.0466C31.6411 33.8648 31.6665 33.678 31.6767 33.4861C31.6869 33.4255 31.6869 33.3649 31.6767 33.3043C31.6665 33.2336 31.6614 33.1629 31.6614 33.0922C31.6614 32.6478 31.6818 32.2135 31.7226 31.7893C31.7735 31.3651 31.799 30.9359 31.799 30.5016C31.799 30.2693 31.7786 30.0471 31.7379 29.835C31.7073 29.6128 31.692 29.3906 31.692 29.1684C31.692 29.0674 31.6971 28.9714 31.7073 28.8805C31.7175 28.7795 31.748 28.6886 31.799 28.6078C32.0232 28.4563 32.2881 28.3806 32.5937 28.3806C32.8179 28.3806 33.0115 28.4412 33.1745 28.5624C33.1643 28.5826 33.1592 28.6129 33.1592 28.6533C33.1592 28.7038 33.1643 28.7492 33.1745 28.7896C33.1847 28.83 33.1898 28.8755 33.1898 28.926V28.9866C33.1898 29.0068 33.1847 29.027 33.1745 29.0472C33.2458 29.1684 33.2917 29.2997 33.3121 29.4411C33.3426 29.5724 33.3579 29.7087 33.3579 29.8501C33.3579 29.9814 33.3528 30.1127 33.3426 30.244C33.3324 30.3652 33.3273 30.4915 33.3273 30.6228C33.3273 30.8046 33.3273 30.9864 33.3273 31.1682C33.3375 31.35 33.3426 31.5318 33.3426 31.7136C33.3426 32.1984 33.3171 32.6781 33.2662 33.1528C33.2254 33.6174 33.1949 34.0921 33.1745 34.5769C33.1541 34.991 33.0981 35.395 33.0064 35.7889C32.9249 36.1828 32.8688 36.5817 32.8383 36.9857C32.8281 37.0665 32.823 37.1473 32.823 37.2281C32.8332 37.2988 32.8383 37.3796 32.8383 37.4705C32.8383 37.7028 32.7924 37.9351 32.7007 38.1674C32.609 38.3896 32.5632 38.627 32.5632 38.8795C32.5632 39.0007 32.5835 39.1067 32.6243 39.1976C32.5632 39.3592 32.5071 39.5511 32.4562 39.7733C32.4154 39.9955 32.3747 40.2278 32.3339 40.4702C32.3033 40.7025 32.2779 40.9348 32.2575 41.1671C32.2371 41.3893 32.2269 41.5862 32.2269 41.7579C32.2269 42.0003 32.2575 42.2478 32.3186 42.5003C32.3798 42.7427 32.4817 42.9649 32.6243 43.1669C32.7262 43.1972 32.8485 43.2123 32.9911 43.2123C33.1337 43.2123 33.2764 43.2174 33.419 43.2275C33.5617 43.2376 33.6941 43.2628 33.8164 43.3032C33.9387 43.3436 34.0304 43.4244 34.0915 43.5456C34.1017 43.5658 34.1068 43.586 34.1068 43.6062V43.6517Z" fill="black"/>
<path d="M48.7177 33.1528C48.677 33.2841 48.6108 33.4053 48.5191 33.5164L48.2592 33.8345C48.1777 33.9355 48.1064 34.0466 48.0453 34.1678C47.9943 34.2789 47.979 34.4102 47.9994 34.5617C47.979 34.5617 47.9536 34.5617 47.923 34.5617C47.8924 34.5516 47.867 34.5466 47.8466 34.5466C47.6836 34.5466 47.5562 34.587 47.4645 34.6678C47.383 34.7385 47.2709 34.7991 47.1283 34.8496C47.1079 34.789 47.0824 34.7334 47.0518 34.6829C47.0213 34.6223 46.9754 34.5819 46.9143 34.5617C46.6698 34.6122 46.4252 34.6526 46.1807 34.6829C45.9362 34.7031 45.6916 34.7334 45.4471 34.7738C45.335 34.794 45.2229 34.8243 45.1109 34.8647C44.9988 34.895 44.8816 34.9253 44.7593 34.9556C44.6982 34.9758 44.632 34.9859 44.5606 34.9859C44.4893 34.9758 44.418 34.9758 44.3467 34.9859C44.1021 34.996 43.8372 35.0162 43.5519 35.0465C43.2667 35.0667 43.0119 35.1425 42.7878 35.2738C42.6859 35.2536 42.5789 35.2384 42.4668 35.2283C42.3547 35.2182 42.2427 35.2132 42.1306 35.2132C41.8861 35.2132 41.616 35.2384 41.3206 35.2889C41.0353 35.3293 40.7806 35.4152 40.5564 35.5465C40.5054 35.5263 40.4494 35.5111 40.3883 35.501C40.3373 35.4909 40.2762 35.4859 40.2049 35.4859C40.1845 35.4859 40.1692 35.4909 40.159 35.501C40.1488 35.501 40.1336 35.501 40.1132 35.501C40.103 35.5919 40.1132 35.6828 40.1437 35.7737C40.1845 35.8545 40.2507 35.9202 40.3424 35.9707C40.3017 36.0818 40.2813 36.203 40.2813 36.3343C40.2813 36.506 40.2915 36.6777 40.3119 36.8494C40.3424 37.0211 40.3577 37.1928 40.3577 37.3645C40.3577 37.5564 40.3322 37.7079 40.2813 37.819C40.3832 38.122 40.4341 38.4452 40.4341 38.7886C40.4341 38.9098 40.4239 39.031 40.4036 39.1521C40.3934 39.2632 40.3883 39.3844 40.3883 39.5157C40.3883 39.6268 40.429 39.7177 40.5105 39.7884C40.5921 39.849 40.6328 39.9349 40.6328 40.046C40.6328 40.0864 40.6226 40.1268 40.6022 40.1672C40.7449 40.1369 40.8824 40.0965 41.0149 40.046C41.1474 39.9854 41.2849 39.9551 41.4275 39.9551C41.5091 39.9551 41.5855 39.9702 41.6568 40.0005C41.7383 40.0308 41.8096 40.0712 41.8708 40.1217C41.8606 40.1722 41.8504 40.2278 41.8402 40.2884C41.8402 40.349 41.8402 40.4096 41.8402 40.4702C41.8402 40.5813 41.8402 40.6873 41.8402 40.7883C41.8504 40.8792 41.8606 40.9802 41.8708 41.0913C41.7893 41.2327 41.6925 41.359 41.5804 41.4701C41.4785 41.5812 41.4072 41.7226 41.3664 41.8943C41.2136 41.8943 41.076 41.9296 40.9538 42.0003C40.8417 42.0609 40.7347 42.1316 40.6328 42.2124C40.5309 42.2831 40.429 42.3538 40.3271 42.4245C40.2253 42.4851 40.1132 42.5154 39.9909 42.5154C39.8381 42.5154 39.7311 42.4952 39.67 42.4548C39.6088 42.4043 39.563 42.3538 39.5324 42.3033C39.5018 42.2528 39.4713 42.2074 39.4407 42.167C39.4203 42.1266 39.3694 42.1114 39.2879 42.1215C39.2675 41.9902 39.2267 41.869 39.1656 41.7579C39.1045 41.6367 39.0382 41.5206 38.9669 41.4095C38.9058 41.2984 38.8396 41.1873 38.7682 41.0762C38.7071 40.955 38.6612 40.8338 38.6307 40.7126C38.5695 40.45 38.5441 40.1773 38.5543 39.8945C38.5645 39.6117 38.5186 39.339 38.4167 39.0764C38.4371 38.935 38.4524 38.7936 38.4626 38.6522C38.4728 38.5007 38.4778 38.3543 38.4778 38.2129C38.4778 37.9301 38.4677 37.6523 38.4473 37.3796C38.4371 37.0968 38.4269 36.809 38.4167 36.5161C38.3454 36.4252 38.2995 36.3242 38.2792 36.2131C38.269 36.0919 38.2588 35.9757 38.2486 35.8646C38.218 35.8343 38.1824 35.804 38.1416 35.7737C38.111 35.7434 38.0907 35.703 38.0805 35.6525C37.999 35.6323 37.9378 35.6222 37.8971 35.6222C37.7544 35.6222 37.6322 35.6576 37.5303 35.7283C37.4386 35.7889 37.352 35.8192 37.2705 35.8192C37.1889 35.8192 37.1125 35.8091 37.0412 35.7889C36.9699 35.7687 36.8986 35.7586 36.8272 35.7586C36.7661 35.7586 36.7304 35.7737 36.7203 35.804C36.7203 35.8242 36.6999 35.8444 36.6591 35.8646C36.6286 35.8848 36.5572 35.905 36.4452 35.9252C36.3331 35.9454 36.2057 35.9656 36.0631 35.9858C35.9306 35.9959 35.7982 36.006 35.6657 36.0161C35.5434 36.0262 35.4619 36.0313 35.4212 36.0313C35.2581 36.0313 35.1359 36.001 35.0544 35.9404C34.9627 35.8697 34.8557 35.7939 34.7334 35.7131C34.7538 35.6525 34.764 35.6121 34.764 35.5919C34.764 35.4909 34.7334 35.4101 34.6723 35.3495C34.6111 35.2788 34.5806 35.2182 34.5806 35.1677C34.5806 35.0566 34.6264 34.9708 34.7181 34.9102C34.7996 34.8496 34.8455 34.7536 34.8557 34.6223C35.09 34.5213 35.3295 34.4456 35.574 34.3951C35.8185 34.3446 36.0682 34.3042 36.3229 34.2739C36.5776 34.2436 36.8272 34.2082 37.0718 34.1678C37.3265 34.1274 37.5761 34.0618 37.8207 33.9709C37.892 33.981 37.9582 33.9911 38.0193 34.0012C38.0907 34.0012 38.162 34.0012 38.2333 34.0012C38.539 34.0012 38.8396 33.9709 39.135 33.9103C39.4407 33.8396 39.7515 33.8042 40.0673 33.8042C40.1488 33.8042 40.2303 33.8093 40.3119 33.8194C40.3934 33.8295 40.4749 33.8446 40.5564 33.8648C40.964 33.8042 41.3664 33.7386 41.7638 33.6679C42.1713 33.5972 42.5891 33.5366 43.017 33.4861C43.2208 33.4659 43.4195 33.4508 43.6131 33.4407C43.8169 33.4205 44.0206 33.3952 44.2244 33.3649C44.2957 33.3548 44.3467 33.3397 44.3772 33.3195C44.418 33.2892 44.4384 33.2336 44.4384 33.1528C44.5301 33.1932 44.632 33.2134 44.7441 33.2134C44.9173 33.2134 45.0854 33.1831 45.2484 33.1225C45.4114 33.0619 45.5795 33.0316 45.7528 33.0316C45.7935 33.0316 45.8292 33.0367 45.8597 33.0468C45.8903 33.0468 45.9209 33.0468 45.9514 33.0468C46.0228 33.0468 46.0584 33.0165 46.0584 32.9559C46.0686 32.8852 46.1196 32.8397 46.2113 32.8195C46.2826 32.7993 46.3845 32.7842 46.5169 32.7741C46.6494 32.764 46.7869 32.7539 46.9296 32.7438C47.0824 32.7236 47.22 32.7034 47.3422 32.6832C47.4747 32.6529 47.5715 32.6125 47.6326 32.562L47.7396 32.3953C47.923 32.4054 48.0555 32.4862 48.137 32.6377C48.2287 32.7791 48.2796 32.9357 48.2898 33.1074C48.3306 33.1478 48.3866 33.168 48.4579 33.168C48.5394 33.1579 48.6108 33.1528 48.6719 33.1528H48.7177Z" fill="black"/>
<path d="M57.4751 41.7882C57.4446 41.9296 57.3783 42.0458 57.2765 42.1367C57.1848 42.2175 57.0727 42.2831 56.9402 42.3336C56.8078 42.3841 56.6702 42.4195 56.5276 42.4397C56.3951 42.4498 56.2728 42.4548 56.1608 42.4548C56.1098 42.4548 56.0589 42.4548 56.0079 42.4548C55.9672 42.4447 55.9213 42.4397 55.8704 42.4397C55.8194 42.4397 55.794 42.4649 55.794 42.5154C55.794 42.5659 55.7685 42.6013 55.7175 42.6215C55.6666 42.6013 55.6157 42.5861 55.5647 42.576C55.5138 42.5659 55.4628 42.5609 55.4119 42.5609C55.3406 42.5609 55.2692 42.5659 55.1979 42.576C55.1368 42.5861 55.0756 42.5912 55.0145 42.5912C54.933 42.5912 54.8719 42.5811 54.8311 42.5609C54.8005 42.5407 54.77 42.5205 54.7394 42.5003C54.719 42.47 54.6936 42.4397 54.663 42.4094C54.6426 42.3791 54.607 42.3538 54.556 42.3336C54.4847 42.3033 54.4236 42.2983 54.3726 42.3185C54.3319 42.3387 54.2656 42.3084 54.1739 42.2276C54.0517 42.1266 53.9447 42.0054 53.853 41.864C53.7715 41.7125 53.6899 41.5559 53.6084 41.3943C53.5269 41.2327 53.4403 41.0711 53.3486 40.9095C53.2569 40.7479 53.1499 40.6065 53.0277 40.4853H52.9054C52.722 40.4853 52.5946 40.5611 52.5233 40.7126C52.4724 40.6823 52.4214 40.6469 52.3705 40.6065C52.3195 40.556 52.2635 40.5156 52.2024 40.4853C51.968 40.556 51.7235 40.6166 51.4688 40.6671C51.214 40.7176 50.9593 40.7429 50.7046 40.7429H50.4906C50.4295 40.7429 50.3633 40.7328 50.2919 40.7126C50.19 40.753 50.0983 40.8035 50.0168 40.8641C49.9353 40.9146 49.8436 40.9398 49.7417 40.9398C49.6806 40.9398 49.6093 40.9196 49.5278 40.8792C49.4666 40.8792 49.4361 40.9045 49.4361 40.955C49.4463 41.0055 49.4157 41.0307 49.3444 41.0307H49.2068C49.0642 41.0307 48.9215 41.0358 48.7789 41.0459C48.6464 41.056 48.5089 41.061 48.3662 41.061C48.1726 41.061 47.9739 41.0358 47.7702 40.9853C47.7192 41.0156 47.6632 41.0307 47.6021 41.0307C47.5613 41.0509 47.5307 41.0863 47.5103 41.1368C47.49 41.1772 47.4696 41.2176 47.4492 41.258C47.4288 41.2883 47.3983 41.3186 47.3575 41.3489C47.3269 41.3691 47.2811 41.3741 47.22 41.364C47.1996 41.4852 47.1486 41.5812 47.0671 41.6519C46.9856 41.7226 46.9449 41.8286 46.9449 41.97C46.8328 42.0306 46.7411 42.1064 46.6698 42.1973C46.5984 42.2882 46.5271 42.3841 46.4558 42.4851C46.3845 42.5861 46.3081 42.6821 46.2265 42.773C46.1552 42.8639 46.0635 42.9346 45.9514 42.9851C45.9005 43.0457 45.8852 43.1416 45.9056 43.2729C45.7935 43.3638 45.656 43.4446 45.4929 43.5153C45.3299 43.586 45.1771 43.6214 45.0344 43.6214C44.739 43.6214 44.5352 43.4648 44.4231 43.1517C44.4231 43.0507 44.4333 42.9447 44.4537 42.8336C44.4639 42.7124 44.4842 42.6013 44.5148 42.5003C44.5454 42.3892 44.5912 42.2932 44.6524 42.2124C44.7135 42.1215 44.8001 42.0559 44.9122 42.0155C44.9122 41.9246 44.8816 41.864 44.8205 41.8337C44.7593 41.7933 44.7339 41.7276 44.7441 41.6367C45.0192 41.5054 45.2586 41.3337 45.4624 41.1216C45.6662 40.9095 45.8496 40.6873 46.0126 40.455C46.1858 40.2126 46.359 39.9702 46.5322 39.7278C46.7054 39.4854 46.899 39.2683 47.113 39.0764V38.7583C47.4187 38.4351 47.6173 38.0715 47.709 37.6675C47.8211 37.6473 47.8924 37.5968 47.923 37.516C47.9638 37.4352 47.9841 37.3392 47.9841 37.2281C48.0351 37.2281 48.0656 37.2079 48.0758 37.1675C48.0962 37.117 48.1421 37.1019 48.2134 37.1221C48.3051 36.8797 48.407 36.6575 48.5191 36.4555C48.6311 36.2535 48.7432 36.0515 48.8553 35.8495C48.9674 35.6374 49.0642 35.4202 49.1457 35.198C49.2374 34.9758 49.3036 34.7284 49.3444 34.4557C49.487 34.4456 49.5634 34.3799 49.5736 34.2587C49.594 34.1274 49.6144 34.0113 49.6347 33.9103C49.7876 33.7689 49.8997 33.6022 49.971 33.4104C50.0525 33.2185 50.1238 33.0215 50.1849 32.8195C50.2461 32.6074 50.3123 32.4004 50.3836 32.1984C50.4651 31.9863 50.5772 31.7994 50.7199 31.6378V31.5924C50.7199 31.5419 50.6995 31.5116 50.6587 31.5015C50.618 31.4813 50.5976 31.4459 50.5976 31.3954C50.6078 31.3853 50.6129 31.3752 50.6129 31.3651C50.7352 31.3146 50.8269 31.2338 50.888 31.1227C50.9491 31.0015 51.0408 30.9157 51.1631 30.8652C51.3771 31.0369 51.5656 31.1429 51.7286 31.1833C51.8916 31.2136 52.1056 31.2389 52.3705 31.2591C52.5029 31.4005 52.5743 31.5722 52.5844 31.7742C52.6048 31.9661 52.6405 32.158 52.6914 32.3499C52.7729 32.6731 52.8595 32.9912 52.9512 33.3043C53.0531 33.6073 53.1296 33.9204 53.1805 34.2436C53.2111 34.4355 53.2671 34.6173 53.3486 34.789C53.4301 34.9607 53.4862 35.1374 53.5167 35.3192C53.5371 35.4606 53.5371 35.6222 53.5167 35.804C53.4964 35.9757 53.5167 36.1272 53.5779 36.2585L53.6849 36.5009C53.7358 36.612 53.7766 36.7282 53.8071 36.8494C53.8479 36.9706 53.8835 37.0918 53.9141 37.213C53.9956 37.516 54.0669 37.8442 54.1281 38.1977C54.1994 38.5411 54.3064 38.8542 54.449 39.137C54.5 39.238 54.5764 39.3087 54.6783 39.3491C54.7904 39.3895 54.9126 39.4198 55.0451 39.44C55.1775 39.4501 55.3049 39.4551 55.4272 39.4551C55.5596 39.445 55.6717 39.44 55.7634 39.44H55.9162C55.9774 39.44 56.0385 39.4501 56.0996 39.4703C56.1404 39.5511 56.1608 39.6218 56.1608 39.6824C56.1608 39.8036 56.12 39.8995 56.0385 39.9702C55.957 40.0409 55.9162 40.1217 55.9162 40.2126C55.9162 40.2631 55.9366 40.3187 55.9774 40.3793C55.9366 40.3692 55.8755 40.3641 55.794 40.3641C55.5596 40.3641 55.3304 40.4045 55.1062 40.4853C55.1877 40.657 55.2947 40.8035 55.4272 40.9247C55.5698 41.0358 55.7175 41.1418 55.8704 41.2428C55.9723 41.162 56.0793 41.1216 56.1913 41.1216C56.3136 41.1216 56.4257 41.1519 56.5276 41.2125C56.6396 41.263 56.7568 41.2883 56.8791 41.2883C56.9708 41.2883 57.037 41.2731 57.0778 41.2428C57.1593 41.3337 57.2255 41.4297 57.2765 41.5307C57.3274 41.6216 57.3936 41.7074 57.4751 41.7882ZM52.6914 39.3643C52.6711 39.1926 52.6354 39.0714 52.5844 39.0007C52.5437 38.9199 52.508 38.8239 52.4775 38.7128C52.4367 38.5714 52.4061 38.4199 52.3858 38.2583C52.3756 38.0967 52.3552 37.9402 52.3246 37.7887C52.2533 37.4453 52.1718 37.1019 52.0801 36.7585C51.9986 36.4151 51.8916 36.0818 51.7591 35.7586C51.7999 35.698 51.8203 35.6424 51.8203 35.5919V35.5465C51.7286 35.4455 51.6623 35.3243 51.6216 35.1829C51.5808 35.0314 51.5401 34.8849 51.4993 34.7435C51.4688 34.592 51.4229 34.4557 51.3618 34.3345C51.3108 34.2032 51.2242 34.0971 51.102 34.0163C51.0714 34.0769 51.0561 34.1476 51.0561 34.2284C51.0561 34.2991 51.0612 34.3648 51.0714 34.4254C51.0918 34.486 51.102 34.5516 51.102 34.6223C51.0001 34.6728 50.9236 34.7536 50.8727 34.8647C50.8319 34.9657 50.7606 35.0465 50.6587 35.1071C50.5772 35.4303 50.4601 35.7384 50.3072 36.0313C50.1544 36.3141 49.9914 36.5969 49.8181 36.8797C49.6551 37.1625 49.4972 37.4503 49.3444 37.7432C49.1915 38.026 49.0693 38.324 48.9776 38.6371C48.8451 38.728 48.7534 38.8441 48.7025 38.9855C48.6617 39.1269 48.6413 39.2683 48.6413 39.4097C48.733 39.4602 48.8349 39.4905 48.947 39.5006C49.0693 39.5006 49.1864 39.5006 49.2985 39.5006C49.4106 39.5006 49.5176 39.5107 49.6195 39.5309C49.7214 39.5511 49.8131 39.6016 49.8946 39.6824C50.027 39.642 50.1697 39.6167 50.3225 39.6066C50.4855 39.5864 50.618 39.541 50.7199 39.4703C50.9236 39.541 51.1427 39.5763 51.3771 39.5763C51.4993 39.5763 51.6165 39.5662 51.7286 39.546C51.8508 39.5258 51.968 39.5006 52.0801 39.4703C52.1718 39.4905 52.2431 39.5258 52.2941 39.5763C52.345 39.6167 52.4214 39.6319 52.5233 39.6218C52.5743 39.5814 52.6048 39.541 52.615 39.5006C52.6252 39.4501 52.6507 39.4046 52.6914 39.3643Z" fill="black"/>
<path d="M65.6823 39.0007C65.6823 39.1118 65.6416 39.1976 65.5601 39.2582C65.4786 39.3087 65.4378 39.3794 65.4378 39.4703C65.4378 39.5107 65.4582 39.5612 65.4989 39.6218C65.3563 39.6218 65.2595 39.6672 65.2085 39.7581C65.1576 39.849 65.1067 39.95 65.0557 40.0611H64.857C64.8061 40.0611 64.7653 40.0712 64.7348 40.0914C64.7042 40.1116 64.6736 40.1419 64.6431 40.1823C64.6227 40.2126 64.5921 40.2631 64.5514 40.3338C64.3578 40.3742 64.1693 40.4399 63.9859 40.5308C63.8127 40.6116 63.6395 40.7025 63.4662 40.8035C63.3032 40.8944 63.1351 40.9903 62.9619 41.0913C62.7887 41.1822 62.6104 41.258 62.427 41.3186C62.3353 41.4701 62.2028 41.5913 62.0296 41.6822H61.9837C61.9328 41.6923 61.887 41.6872 61.8462 41.667C61.8156 41.6367 61.7749 41.6216 61.7239 41.6216C61.6934 41.6216 61.673 41.6266 61.6628 41.6367C61.3571 41.8387 61.0158 41.9397 60.6388 41.9397C60.5369 41.9397 60.4401 41.9347 60.3484 41.9246C60.2567 41.9044 60.1599 41.8943 60.058 41.8943C60.0275 41.8943 60.0071 41.9044 59.9969 41.9246L59.9663 41.9852C59.9562 42.0054 59.9409 42.0256 59.9205 42.0458C59.9103 42.066 59.8746 42.0761 59.8135 42.0761C59.7014 42.0761 59.5893 42.0609 59.4773 42.0306C59.3652 42.0003 59.248 41.9953 59.1257 42.0155C58.8914 41.8842 58.708 41.7579 58.5755 41.6367C58.4431 41.5155 58.3208 41.3337 58.2087 41.0913C58.1578 40.9802 58.0865 40.8742 57.9948 40.7732C57.9133 40.6722 57.8521 40.5611 57.8114 40.4399C57.8012 40.3995 57.7859 40.3288 57.7655 40.2278C57.7451 40.1167 57.7248 40.0005 57.7044 39.8793C57.684 39.7581 57.6636 39.642 57.6433 39.5309C57.6331 39.4198 57.628 39.344 57.628 39.3036C57.628 39.1825 57.6331 39.0663 57.6433 38.9552C57.6636 38.834 57.684 38.7128 57.7044 38.5916C57.7655 38.2078 57.8063 37.824 57.8267 37.4402C57.8572 37.0463 57.9438 36.6676 58.0865 36.304C58.0661 36.1929 58.0559 36.0868 58.0559 35.9858V35.6525C58.0559 35.4606 58.0304 35.299 57.9795 35.1677C58.061 35.0364 58.1018 34.89 58.1018 34.7284C58.1018 34.5466 58.0253 34.4405 57.8725 34.4102V34.3648C57.8725 34.1527 57.8012 33.986 57.6585 33.8648C57.6585 33.5114 57.7451 33.2488 57.9184 33.0771C58.1018 32.8953 58.3412 32.7387 58.6367 32.6074C58.6774 32.5468 58.6927 32.4963 58.6825 32.4559C58.7539 32.4761 58.8201 32.4963 58.8812 32.5165C58.9423 32.5367 59.0035 32.5468 59.0646 32.5468C59.1665 32.5468 59.2582 32.5317 59.3397 32.5014C59.3703 32.6226 59.4467 32.6983 59.569 32.7286C59.7014 32.7488 59.8084 32.7791 59.8899 32.8195V33.0165C59.8899 33.3296 59.9663 33.6275 60.1192 33.9103C60.0784 33.9911 60.0529 34.0769 60.0428 34.1678C60.0326 34.2587 60.0275 34.3446 60.0275 34.4254C60.0275 34.5466 60.0326 34.6678 60.0428 34.789C60.0529 34.9102 60.058 35.0263 60.058 35.1374C60.058 35.2586 60.0428 35.3798 60.0122 35.501C59.9918 35.6222 59.9358 35.7283 59.8441 35.8192C59.8339 35.9505 59.8237 36.102 59.8135 36.2737C59.8135 36.4353 59.8033 36.6019 59.7829 36.7736C59.7727 36.9453 59.7473 37.112 59.7065 37.2736C59.6658 37.4352 59.6046 37.5665 59.5231 37.6675C59.5129 37.819 59.5027 37.9755 59.4925 38.1371C59.4925 38.2886 59.4925 38.4351 59.4925 38.5765C59.4925 38.7987 59.5027 39.0613 59.5231 39.3643C59.5537 39.6672 59.625 39.9197 59.7371 40.1217C59.788 40.2025 59.8848 40.2631 60.0275 40.3035C60.1803 40.3439 60.3026 40.3641 60.3943 40.3641C60.5064 40.3641 60.6184 40.349 60.7305 40.3187C60.8528 40.2783 60.9394 40.2126 60.9903 40.1217C61.0515 40.1318 61.0922 40.1621 61.1126 40.2126C61.133 40.2631 61.1686 40.3035 61.2196 40.3338C61.8003 40.0914 62.3811 39.8591 62.9619 39.6369C63.5427 39.4147 64.1132 39.1572 64.6736 38.8643C64.7551 38.9047 64.8417 38.9249 64.9334 38.9249C65.0353 38.9249 65.1372 38.9148 65.2391 38.8946C65.341 38.8744 65.4429 38.8643 65.5448 38.8643H65.6518C65.6721 38.9249 65.6823 38.9704 65.6823 39.0007Z" fill="black"/>
<path d="M68.8766 40.8186C68.8256 40.8994 68.7645 40.9752 68.6932 41.0459C68.6218 41.1065 68.5556 41.1721 68.4945 41.2428C68.4232 41.2731 68.3417 41.2883 68.25 41.2883C68.1684 41.2883 68.0869 41.2883 68.0054 41.2883C67.9341 41.2782 67.8628 41.2782 67.7915 41.2883C67.7303 41.2883 67.6794 41.3085 67.6386 41.3489C67.5571 41.3287 67.496 41.2933 67.4552 41.2428C67.4145 41.1822 67.3431 41.1469 67.2412 41.1368C67.2005 41.1267 67.1597 41.1267 67.119 41.1368C66.9661 40.9651 66.8235 40.7833 66.691 40.5914C66.5688 40.3995 66.4516 40.2177 66.3395 40.046C66.3293 39.6723 66.2988 39.2935 66.2478 38.9098C66.2376 38.8189 66.2224 38.728 66.202 38.6371C66.1816 38.5462 66.1663 38.4603 66.1561 38.3795C66.1561 38.2785 66.1612 38.1826 66.1714 38.0917C66.1918 37.9907 66.2071 37.8998 66.2173 37.819C66.258 37.5261 66.3039 37.2382 66.3548 36.9554C66.4058 36.6726 66.4516 36.3848 66.4924 36.0919C66.5331 35.8293 66.5535 35.5566 66.5535 35.2738C66.5535 34.9809 66.5076 34.7082 66.4159 34.4557L66.4007 34.3799C66.421 34.2991 66.4414 34.2335 66.4618 34.183C66.4924 34.1224 66.5127 34.0567 66.5229 33.986C66.5433 33.8749 66.5178 33.7941 66.4465 33.7436C66.4771 33.6628 66.528 33.6123 66.5993 33.5921C66.6707 33.5619 66.7114 33.5013 66.7216 33.4104C66.7318 33.37 66.7318 33.3296 66.7216 33.2892C66.8031 33.2589 66.8846 33.2336 66.9661 33.2134C67.0578 33.1831 67.1445 33.1781 67.226 33.1983C67.3584 33.2185 67.4756 33.2639 67.5775 33.3346C67.6794 33.3952 67.7762 33.4659 67.8679 33.5467C68.0309 34.0315 68.0971 34.5466 68.0666 35.092C68.036 35.6273 67.985 36.1676 67.9137 36.713C67.8424 37.2584 67.7965 37.7937 67.7762 38.3189C67.7558 38.834 67.8373 39.3137 68.0207 39.7581L68.0513 39.7733C68.1022 39.7834 68.143 39.7682 68.1735 39.7278C68.2041 39.6773 68.2449 39.6571 68.2958 39.6672C68.3366 39.6874 68.362 39.6975 68.3722 39.6975C68.413 39.8995 68.4792 40.0914 68.5709 40.2732C68.6626 40.455 68.7645 40.6368 68.8766 40.8186Z" fill="black"/>
<path d="M81.6994 41.7882C81.6688 41.9296 81.6026 42.0458 81.5007 42.1367C81.409 42.2175 81.2969 42.2831 81.1644 42.3336C81.032 42.3841 80.8944 42.4195 80.7518 42.4397C80.6193 42.4498 80.4971 42.4548 80.385 42.4548C80.334 42.4548 80.2831 42.4548 80.2322 42.4548C80.1914 42.4447 80.1455 42.4397 80.0946 42.4397C80.0437 42.4397 80.0182 42.4649 80.0182 42.5154C80.0182 42.5659 79.9927 42.6013 79.9418 42.6215C79.8908 42.6013 79.8399 42.5861 79.7889 42.576C79.738 42.5659 79.687 42.5609 79.6361 42.5609C79.5648 42.5609 79.4935 42.5659 79.4221 42.576C79.361 42.5861 79.2999 42.5912 79.2387 42.5912C79.1572 42.5912 79.0961 42.5811 79.0553 42.5609C79.0248 42.5407 78.9942 42.5205 78.9636 42.5003C78.9433 42.47 78.9178 42.4397 78.8872 42.4094C78.8668 42.3791 78.8312 42.3538 78.7802 42.3336C78.7089 42.3033 78.6478 42.2983 78.5968 42.3185C78.5561 42.3387 78.4898 42.3084 78.3981 42.2276C78.2759 42.1266 78.1689 42.0054 78.0772 41.864C77.9957 41.7125 77.9142 41.5559 77.8327 41.3943C77.7511 41.2327 77.6645 41.0711 77.5728 40.9095C77.4811 40.7479 77.3742 40.6065 77.2519 40.4853H77.1296C76.9462 40.4853 76.8189 40.5611 76.7475 40.7126C76.6966 40.6823 76.6456 40.6469 76.5947 40.6065C76.5438 40.556 76.4877 40.5156 76.4266 40.4853C76.1922 40.556 75.9477 40.6166 75.693 40.6671C75.4383 40.7176 75.1835 40.7429 74.9288 40.7429H74.7148C74.6537 40.7429 74.5875 40.7328 74.5162 40.7126C74.4143 40.753 74.3226 40.8035 74.2411 40.8641C74.1595 40.9146 74.0678 40.9398 73.966 40.9398C73.9048 40.9398 73.8335 40.9196 73.752 40.8792C73.6908 40.8792 73.6603 40.9045 73.6603 40.955C73.6705 41.0055 73.6399 41.0307 73.5686 41.0307H73.431C73.2884 41.0307 73.1457 41.0358 73.0031 41.0459C72.8706 41.056 72.7331 41.061 72.5904 41.061C72.3969 41.061 72.1982 41.0358 71.9944 40.9853C71.9434 41.0156 71.8874 41.0307 71.8263 41.0307C71.7855 41.0509 71.7549 41.0863 71.7346 41.1368C71.7142 41.1772 71.6938 41.2176 71.6734 41.258C71.6531 41.2883 71.6225 41.3186 71.5817 41.3489C71.5512 41.3691 71.5053 41.3741 71.4442 41.364C71.4238 41.4852 71.3729 41.5812 71.2914 41.6519C71.2098 41.7226 71.1691 41.8286 71.1691 41.97C71.057 42.0306 70.9653 42.1064 70.894 42.1973C70.8227 42.2882 70.7513 42.3841 70.68 42.4851C70.6087 42.5861 70.5323 42.6821 70.4508 42.773C70.3794 42.8639 70.2877 42.9346 70.1757 42.9851C70.1247 43.0457 70.1094 43.1416 70.1298 43.2729C70.0177 43.3638 69.8802 43.4446 69.7172 43.5153C69.5541 43.586 69.4013 43.6214 69.2587 43.6214C68.9632 43.6214 68.7594 43.4648 68.6473 43.1517C68.6473 43.0507 68.6575 42.9447 68.6779 42.8336C68.6881 42.7124 68.7085 42.6013 68.739 42.5003C68.7696 42.3892 68.8154 42.2932 68.8766 42.2124C68.9377 42.1215 69.0243 42.0559 69.1364 42.0155C69.1364 41.9246 69.1058 41.864 69.0447 41.8337C68.9836 41.7933 68.9581 41.7276 68.9683 41.6367C69.2434 41.5054 69.4828 41.3337 69.6866 41.1216C69.8904 40.9095 70.0738 40.6873 70.2368 40.455C70.41 40.2126 70.5832 39.9702 70.7564 39.7278C70.9296 39.4854 71.1232 39.2683 71.3372 39.0764V38.7583C71.6429 38.4351 71.8416 38.0715 71.9333 37.6675C72.0453 37.6473 72.1167 37.5968 72.1472 37.516C72.188 37.4352 72.2084 37.3392 72.2084 37.2281C72.2593 37.2281 72.2899 37.2079 72.3001 37.1675C72.3204 37.117 72.3663 37.1019 72.4376 37.1221C72.5293 36.8797 72.6312 36.6575 72.7433 36.4555C72.8554 36.2535 72.9674 36.0515 73.0795 35.8495C73.1916 35.6374 73.2884 35.4202 73.3699 35.198C73.4616 34.9758 73.5278 34.7284 73.5686 34.4557C73.7112 34.4456 73.7876 34.3799 73.7978 34.2587C73.8182 34.1274 73.8386 34.0113 73.859 33.9103C74.0118 33.7689 74.1239 33.6022 74.1952 33.4104C74.2767 33.2185 74.348 33.0215 74.4092 32.8195C74.4703 32.6074 74.5365 32.4004 74.6079 32.1984C74.6894 31.9863 74.8014 31.7994 74.9441 31.6378V31.5924C74.9441 31.5419 74.9237 31.5116 74.883 31.5015C74.8422 31.4813 74.8218 31.4459 74.8218 31.3954C74.832 31.3853 74.8371 31.3752 74.8371 31.3651C74.9594 31.3146 75.0511 31.2338 75.1122 31.1227C75.1733 31.0015 75.265 30.9157 75.3873 30.8652C75.6013 31.0369 75.7898 31.1429 75.9528 31.1833C76.1158 31.2136 76.3298 31.2389 76.5947 31.2591C76.7272 31.4005 76.7985 31.5722 76.8087 31.7742C76.829 31.9661 76.8647 32.158 76.9156 32.3499C76.9972 32.6731 77.0838 32.9912 77.1755 33.3043C77.2774 33.6073 77.3538 33.9204 77.4047 34.2436C77.4353 34.4355 77.4913 34.6173 77.5728 34.789C77.6543 34.9607 77.7104 35.1374 77.741 35.3192C77.7613 35.4606 77.7613 35.6222 77.741 35.804C77.7206 35.9757 77.741 36.1272 77.8021 36.2585L77.9091 36.5009C77.96 36.612 78.0008 36.7282 78.0313 36.8494C78.0721 36.9706 78.1078 37.0918 78.1383 37.213C78.2198 37.516 78.2912 37.8442 78.3523 38.1977C78.4236 38.5411 78.5306 38.8542 78.6732 39.137C78.7242 39.238 78.8006 39.3087 78.9025 39.3491C79.0146 39.3895 79.1368 39.4198 79.2693 39.44C79.4018 39.4501 79.5291 39.4551 79.6514 39.4551C79.7838 39.445 79.8959 39.44 79.9876 39.44H80.1405C80.2016 39.44 80.2627 39.4501 80.3239 39.4703C80.3646 39.5511 80.385 39.6218 80.385 39.6824C80.385 39.8036 80.3442 39.8995 80.2627 39.9702C80.1812 40.0409 80.1405 40.1217 80.1405 40.2126C80.1405 40.2631 80.1608 40.3187 80.2016 40.3793C80.1608 40.3692 80.0997 40.3641 80.0182 40.3641C79.7838 40.3641 79.5546 40.4045 79.3304 40.4853C79.4119 40.657 79.5189 40.8035 79.6514 40.9247C79.794 41.0358 79.9418 41.1418 80.0946 41.2428C80.1965 41.162 80.3035 41.1216 80.4156 41.1216C80.5378 41.1216 80.6499 41.1519 80.7518 41.2125C80.8639 41.263 80.981 41.2883 81.1033 41.2883C81.195 41.2883 81.2612 41.2731 81.302 41.2428C81.3835 41.3337 81.4497 41.4297 81.5007 41.5307C81.5516 41.6216 81.6178 41.7074 81.6994 41.7882ZM76.9156 39.3643C76.8953 39.1926 76.8596 39.0714 76.8087 39.0007C76.7679 38.9199 76.7322 38.8239 76.7017 38.7128C76.6609 38.5714 76.6304 38.4199 76.61 38.2583C76.5998 38.0967 76.5794 37.9402 76.5488 37.7887C76.4775 37.4453 76.396 37.1019 76.3043 36.7585C76.2228 36.4151 76.1158 36.0818 75.9834 35.7586C76.0241 35.698 76.0445 35.6424 76.0445 35.5919V35.5465C75.9528 35.4455 75.8866 35.3243 75.8458 35.1829C75.8051 35.0314 75.7643 34.8849 75.7235 34.7435C75.693 34.592 75.6471 34.4557 75.586 34.3345C75.535 34.2032 75.4484 34.0971 75.3262 34.0163C75.2956 34.0769 75.2803 34.1476 75.2803 34.2284C75.2803 34.2991 75.2854 34.3648 75.2956 34.4254C75.316 34.486 75.3262 34.5516 75.3262 34.6223C75.2243 34.6728 75.1479 34.7536 75.0969 34.8647C75.0562 34.9657 74.9848 35.0465 74.883 35.1071C74.8014 35.4303 74.6843 35.7384 74.5314 36.0313C74.3786 36.3141 74.2156 36.5969 74.0424 36.8797C73.8793 37.1625 73.7214 37.4503 73.5686 37.7432C73.4157 38.026 73.2935 38.324 73.2018 38.6371C73.0693 38.728 72.9776 38.8441 72.9267 38.9855C72.8859 39.1269 72.8655 39.2683 72.8655 39.4097C72.9572 39.4602 73.0591 39.4905 73.1712 39.5006C73.2935 39.5006 73.4107 39.5006 73.5227 39.5006C73.6348 39.5006 73.7418 39.5107 73.8437 39.5309C73.9456 39.5511 74.0373 39.6016 74.1188 39.6824C74.2512 39.642 74.3939 39.6167 74.5467 39.6066C74.7097 39.5864 74.8422 39.541 74.9441 39.4703C75.1479 39.541 75.3669 39.5763 75.6013 39.5763C75.7235 39.5763 75.8407 39.5662 75.9528 39.546C76.0751 39.5258 76.1922 39.5006 76.3043 39.4703C76.396 39.4905 76.4673 39.5258 76.5183 39.5763C76.5692 39.6167 76.6456 39.6319 76.7475 39.6218C76.7985 39.5814 76.829 39.541 76.8392 39.5006C76.8494 39.4501 76.8749 39.4046 76.9156 39.3643Z" fill="black"/>
<path d="M91.6336 32.9407C91.6132 33.0619 91.5826 33.168 91.5419 33.2589C91.5113 33.3397 91.5062 33.4508 91.5266 33.5921C91.4247 33.6022 91.3432 33.6376 91.2821 33.6982C91.2311 33.7487 91.1853 33.8093 91.1445 33.88C91.1139 33.9507 91.0783 34.0264 91.0375 34.1072C91.007 34.1779 90.9662 34.2436 90.9153 34.3042C90.9968 34.6678 91.0426 35.0364 91.0528 35.4101C91.063 35.7838 91.0885 36.1525 91.1292 36.5161C91.1802 36.9807 91.2566 37.4402 91.3585 37.8947C91.4706 38.3391 91.5266 38.7936 91.5266 39.2582C91.5266 39.3996 91.5215 39.5309 91.5113 39.6521C91.5113 39.7733 91.5113 39.8995 91.5113 40.0308C91.5113 40.1116 91.5113 40.1975 91.5113 40.2884C91.5215 40.3692 91.5266 40.45 91.5266 40.5308C91.5266 40.8237 91.4858 41.1166 91.4043 41.4095C91.333 41.7024 91.277 41.9953 91.2362 42.2882C91.1139 42.3993 91.007 42.5205 90.9153 42.6518C90.8338 42.7831 90.7471 42.9043 90.6554 43.0154C90.5637 43.1265 90.4568 43.2224 90.3345 43.3032C90.2122 43.3941 90.0594 43.4547 89.876 43.485C89.8454 43.586 89.7843 43.6618 89.6926 43.7123C89.6111 43.7628 89.5398 43.8335 89.4786 43.9244H89.4481C89.1933 43.9244 88.9743 43.889 88.7909 43.8183C88.6075 43.7476 88.4343 43.6668 88.2712 43.5759C88.1184 43.485 87.9605 43.3891 87.7974 43.2881C87.6344 43.1871 87.4459 43.1063 87.232 43.0457C86.9467 42.8134 86.6868 42.5609 86.4525 42.2882C86.2182 42.0054 85.9532 41.7529 85.6578 41.5307C85.5864 41.3287 85.4896 41.162 85.3674 41.0307C85.2553 40.8994 85.1432 40.7479 85.0311 40.5762C84.9802 40.5055 84.9394 40.4399 84.9089 40.3793C84.8885 40.3187 84.8579 40.248 84.8172 40.1672C84.7866 40.0864 84.7357 40.0308 84.6643 40.0005C84.6032 39.9702 84.5472 39.9349 84.4962 39.8945C84.4147 39.5814 84.2975 39.2936 84.1447 39.031C83.9919 38.7684 83.8136 38.5159 83.6098 38.2735C83.5487 38.3846 83.4977 38.5058 83.457 38.6371C83.4264 38.7583 83.3958 38.8845 83.3653 39.0158C83.3347 39.137 83.2939 39.2632 83.243 39.3945C83.2022 39.5157 83.1462 39.6268 83.0749 39.7278V39.7733C83.0749 39.8238 83.0952 39.8541 83.136 39.8642C83.1768 39.8743 83.1971 39.9046 83.1971 39.9551C83.1971 39.9652 83.192 39.9753 83.1819 39.9854C83.1819 39.9955 83.1819 40.0056 83.1819 40.0157C83.1309 40.0561 83.0902 40.1066 83.0596 40.1672C83.0392 40.2278 82.9883 40.2631 82.9067 40.2732C82.9169 40.3237 82.922 40.3742 82.922 40.4247V40.5611C82.922 40.854 82.8864 41.1469 82.8151 41.4398C82.7539 41.7327 82.7234 42.0306 82.7234 42.3336V42.5306C82.7234 42.6013 82.7284 42.6669 82.7386 42.7275C82.759 42.7881 82.7896 42.8487 82.8303 42.9093C82.8711 42.9699 82.8915 43.0255 82.8915 43.076C82.8915 43.1467 82.8609 43.2123 82.7998 43.2729C82.8711 43.3234 82.9526 43.379 83.0443 43.4396C83.136 43.5002 83.2175 43.5658 83.2888 43.6365C83.3703 43.7173 83.4366 43.7981 83.4875 43.8789C83.5385 43.9698 83.5639 44.0658 83.5639 44.1668C83.5639 44.3385 83.5079 44.4597 83.3958 44.5304C83.2837 44.6011 83.1462 44.6566 82.9832 44.697C82.8303 44.7374 82.6673 44.7728 82.4941 44.8031C82.3311 44.8435 82.1935 44.9091 82.0814 45H82.0356C81.9133 45 81.8216 44.9647 81.7605 44.894C81.6994 44.8233 81.6077 44.7879 81.4854 44.7879C81.2918 44.4748 81.1593 44.1213 81.088 43.7274C81.0167 43.3436 80.981 42.975 80.981 42.6215C80.981 42.1872 81.0218 41.7529 81.1033 41.3186C81.1746 40.8843 81.2663 40.455 81.3784 40.0308C81.4803 39.6066 81.5924 39.1875 81.7146 38.7734C81.8471 38.3492 81.9694 37.925 82.0814 37.5008L82.0967 37.4554C82.0967 37.4049 82.0814 37.3695 82.0509 37.3493C82.0305 37.3291 82.0203 37.2988 82.0203 37.2584C82.0203 37.2382 82.0254 37.2281 82.0356 37.2281C82.0662 37.1271 82.0967 37.0312 82.1273 36.9403C82.1681 36.8494 82.1986 36.7484 82.219 36.6373C82.2801 36.3545 82.3209 36.0666 82.3413 35.7737C82.3718 35.4707 82.3871 35.1728 82.3871 34.8799C82.3973 34.587 82.4075 34.2941 82.4177 34.0012C82.4381 33.6982 82.4737 33.4003 82.5247 33.1074C82.6062 33.0266 82.6826 32.9407 82.7539 32.8498C82.8252 32.7589 82.9169 32.6781 83.029 32.6074C83.2328 32.6175 83.4366 32.6478 83.6404 32.6983C83.8441 32.7488 84.0377 32.8296 84.2211 32.9407C84.3434 33.375 84.4249 33.8093 84.4657 34.2436C84.5166 34.6779 84.5981 35.1122 84.7102 35.5465V35.5919C84.7102 35.6424 84.7357 35.6677 84.7866 35.6677C84.8477 35.6576 84.8936 35.6727 84.9242 35.7131C84.9038 35.7434 84.8885 35.7788 84.8783 35.8192C84.8783 35.8596 84.8783 35.9 84.8783 35.9404V36.1979C84.8987 36.2787 84.9242 36.3646 84.9547 36.4555C84.9853 36.5464 85.0515 36.6019 85.1534 36.6221C85.2044 36.9453 85.2808 37.2433 85.3827 37.516C85.4846 37.7887 85.6017 38.0513 85.7342 38.3038C85.8666 38.5563 86.0093 38.8088 86.1621 39.0613C86.315 39.3037 86.4729 39.5612 86.6359 39.8339C86.8906 40.0258 87.1097 40.248 87.2931 40.5005C87.4765 40.7429 87.6599 40.9802 87.8433 41.2125C88.0369 41.4347 88.2509 41.6317 88.4852 41.8034C88.7297 41.9751 89.0456 42.0811 89.4328 42.1215C89.4837 42.0811 89.5194 42.0256 89.5398 41.9549L89.6162 41.7428C89.6467 41.6721 89.6773 41.6115 89.7079 41.561C89.7486 41.5004 89.8047 41.4549 89.876 41.4246C89.8964 41.1418 89.9167 40.854 89.9371 40.5611C89.9677 40.2682 90.0339 39.9904 90.1358 39.7278C90.0849 39.6369 90.0594 39.5258 90.0594 39.3945C90.0594 39.2935 90.0645 39.1976 90.0747 39.1067C90.0951 39.0158 90.1052 38.9249 90.1052 38.834C90.1052 38.6421 90.0645 38.4856 89.983 38.3644C89.983 38.2937 89.9881 38.223 89.9983 38.1523C90.0084 38.0715 90.039 37.9957 90.09 37.925C90.0084 37.723 89.9422 37.5109 89.8913 37.2887C89.8505 37.0665 89.8301 36.8393 89.8301 36.607C89.8301 36.4757 89.8454 36.3393 89.876 36.1979C89.8149 36.0464 89.7741 35.8697 89.7537 35.6677L89.6926 35.0465C89.6722 34.8344 89.6416 34.6375 89.6009 34.4557C89.5601 34.2739 89.4837 34.1274 89.3716 34.0163C89.4328 33.9254 89.4633 33.8194 89.4633 33.6982C89.4633 33.4962 89.4328 33.3043 89.3716 33.1225C89.3105 32.9407 89.2799 32.7488 89.2799 32.5468C89.2799 32.4054 89.3105 32.264 89.3716 32.1226C89.5958 32.1327 89.8149 32.158 90.0288 32.1984C90.253 32.2287 90.472 32.2438 90.686 32.2438C90.7471 32.3246 90.8185 32.3903 90.9 32.4408C90.9815 32.4913 91.0681 32.5418 91.1598 32.5923C91.2515 32.6327 91.3381 32.6781 91.4196 32.7286C91.5113 32.7791 91.5826 32.8498 91.6336 32.9407Z" fill="black"/>
<path d="M104.533 41.7882C104.502 41.9296 104.436 42.0458 104.334 42.1367C104.242 42.2175 104.13 42.2831 103.998 42.3336C103.865 42.3841 103.728 42.4195 103.585 42.4397C103.453 42.4498 103.33 42.4548 103.218 42.4548C103.167 42.4548 103.117 42.4548 103.066 42.4548C103.025 42.4447 102.979 42.4397 102.928 42.4397C102.877 42.4397 102.852 42.4649 102.852 42.5154C102.852 42.5659 102.826 42.6013 102.775 42.6215C102.724 42.6013 102.673 42.5861 102.622 42.576C102.571 42.5659 102.52 42.5609 102.47 42.5609C102.398 42.5609 102.327 42.5659 102.256 42.576C102.194 42.5861 102.133 42.5912 102.072 42.5912C101.991 42.5912 101.93 42.5811 101.889 42.5609C101.858 42.5407 101.828 42.5205 101.797 42.5003C101.777 42.47 101.751 42.4397 101.721 42.4094C101.7 42.3791 101.665 42.3538 101.614 42.3336C101.542 42.3033 101.481 42.2983 101.43 42.3185C101.39 42.3387 101.323 42.3084 101.232 42.2276C101.109 42.1266 101.002 42.0054 100.911 41.864C100.829 41.7125 100.748 41.5559 100.666 41.3943C100.585 41.2327 100.498 41.0711 100.406 40.9095C100.315 40.7479 100.208 40.6065 100.085 40.4853H99.9631C99.7796 40.4853 99.6523 40.5611 99.581 40.7126C99.53 40.6823 99.4791 40.6469 99.4281 40.6065C99.3772 40.556 99.3211 40.5156 99.26 40.4853C99.0257 40.556 98.7811 40.6166 98.5264 40.6671C98.2717 40.7176 98.017 40.7429 97.7622 40.7429H97.5483C97.4871 40.7429 97.4209 40.7328 97.3496 40.7126C97.2477 40.753 97.156 40.8035 97.0745 40.8641C96.993 40.9146 96.9013 40.9398 96.7994 40.9398C96.7382 40.9398 96.6669 40.9196 96.5854 40.8792C96.5243 40.8792 96.4937 40.9045 96.4937 40.955C96.5039 41.0055 96.4733 41.0307 96.402 41.0307H96.2645C96.1218 41.0307 95.9792 41.0358 95.8365 41.0459C95.7041 41.056 95.5665 41.061 95.4239 41.061C95.2303 41.061 95.0316 41.0358 94.8278 40.9853C94.7769 41.0156 94.7208 41.0307 94.6597 41.0307C94.6189 41.0509 94.5884 41.0863 94.568 41.1368C94.5476 41.1772 94.5272 41.2176 94.5069 41.258C94.4865 41.2883 94.4559 41.3186 94.4152 41.3489C94.3846 41.3691 94.3388 41.3741 94.2776 41.364C94.2572 41.4852 94.2063 41.5812 94.1248 41.6519C94.0433 41.7226 94.0025 41.8286 94.0025 41.97C93.8904 42.0306 93.7987 42.1064 93.7274 42.1973C93.6561 42.2882 93.5848 42.3841 93.5134 42.4851C93.4421 42.5861 93.3657 42.6821 93.2842 42.773C93.2129 42.8639 93.1212 42.9346 93.0091 42.9851C92.9581 43.0457 92.9429 43.1416 92.9632 43.2729C92.8512 43.3638 92.7136 43.4446 92.5506 43.5153C92.3876 43.586 92.2347 43.6214 92.0921 43.6214C91.7966 43.6214 91.5928 43.4648 91.4808 43.1517C91.4808 43.0507 91.4909 42.9447 91.5113 42.8336C91.5215 42.7124 91.5419 42.6013 91.5724 42.5003C91.603 42.3892 91.6489 42.2932 91.71 42.2124C91.7711 42.1215 91.8577 42.0559 91.9698 42.0155C91.9698 41.9246 91.9393 41.864 91.8781 41.8337C91.817 41.7933 91.7915 41.7276 91.8017 41.6367C92.0768 41.5054 92.3162 41.3337 92.52 41.1216C92.7238 40.9095 92.9072 40.6873 93.0702 40.455C93.2434 40.2126 93.4166 39.9702 93.5899 39.7278C93.7631 39.4854 93.9567 39.2683 94.1706 39.0764V38.7583C94.4763 38.4351 94.675 38.0715 94.7667 37.6675C94.8788 37.6473 94.9501 37.5968 94.9807 37.516C95.0214 37.4352 95.0418 37.3392 95.0418 37.2281C95.0927 37.2281 95.1233 37.2079 95.1335 37.1675C95.1539 37.117 95.1997 37.1019 95.271 37.1221C95.3627 36.8797 95.4646 36.6575 95.5767 36.4555C95.6888 36.2535 95.8009 36.0515 95.9129 35.8495C96.025 35.6374 96.1218 35.4202 96.2033 35.198C96.295 34.9758 96.3613 34.7284 96.402 34.4557C96.5447 34.4456 96.6211 34.3799 96.6313 34.2587C96.6516 34.1274 96.672 34.0113 96.6924 33.9103C96.8452 33.7689 96.9573 33.6022 97.0286 33.4104C97.1101 33.2185 97.1815 33.0215 97.2426 32.8195C97.3037 32.6074 97.37 32.4004 97.4413 32.1984C97.5228 31.9863 97.6349 31.7994 97.7775 31.6378V31.5924C97.7775 31.5419 97.7571 31.5116 97.7164 31.5015C97.6756 31.4813 97.6553 31.4459 97.6553 31.3954C97.6654 31.3853 97.6705 31.3752 97.6705 31.3651C97.7928 31.3146 97.8845 31.2338 97.9456 31.1227C98.0068 31.0015 98.0985 30.9157 98.2207 30.8652C98.4347 31.0369 98.6232 31.1429 98.7862 31.1833C98.9492 31.2136 99.1632 31.2389 99.4281 31.2591C99.5606 31.4005 99.6319 31.5722 99.6421 31.7742C99.6625 31.9661 99.6981 32.158 99.7491 32.3499C99.8306 32.6731 99.9172 32.9912 100.009 33.3043C100.111 33.6073 100.187 33.9204 100.238 34.2436C100.269 34.4355 100.325 34.6173 100.406 34.789C100.488 34.9607 100.544 35.1374 100.574 35.3192C100.595 35.4606 100.595 35.6222 100.574 35.804C100.554 35.9757 100.574 36.1272 100.636 36.2585L100.743 36.5009C100.793 36.612 100.834 36.7282 100.865 36.8494C100.906 36.9706 100.941 37.0918 100.972 37.213C101.053 37.516 101.125 37.8442 101.186 38.1977C101.257 38.5411 101.364 38.8542 101.507 39.137C101.558 39.238 101.634 39.3087 101.736 39.3491C101.848 39.3895 101.97 39.4198 102.103 39.44C102.235 39.4501 102.363 39.4551 102.485 39.4551C102.617 39.445 102.729 39.44 102.821 39.44H102.974C103.035 39.44 103.096 39.4501 103.157 39.4703C103.198 39.5511 103.218 39.6218 103.218 39.6824C103.218 39.8036 103.178 39.8995 103.096 39.9702C103.015 40.0409 102.974 40.1217 102.974 40.2126C102.974 40.2631 102.994 40.3187 103.035 40.3793C102.994 40.3692 102.933 40.3641 102.852 40.3641C102.617 40.3641 102.388 40.4045 102.164 40.4853C102.245 40.657 102.352 40.8035 102.485 40.9247C102.627 41.0358 102.775 41.1418 102.928 41.2428C103.03 41.162 103.137 41.1216 103.249 41.1216C103.371 41.1216 103.483 41.1519 103.585 41.2125C103.697 41.263 103.814 41.2883 103.937 41.2883C104.028 41.2883 104.095 41.2731 104.135 41.2428C104.217 41.3337 104.283 41.4297 104.334 41.5307C104.385 41.6216 104.451 41.7074 104.533 41.7882ZM99.7491 39.3643C99.7287 39.1926 99.693 39.0714 99.6421 39.0007C99.6013 38.9199 99.5657 38.8239 99.5351 38.7128C99.4944 38.5714 99.4638 38.4199 99.4434 38.2583C99.4332 38.0967 99.4128 37.9402 99.3823 37.7887C99.311 37.4453 99.2294 37.1019 99.1377 36.7585C99.0562 36.4151 98.9493 36.0818 98.8168 35.7586C98.8576 35.698 98.8779 35.6424 98.8779 35.5919V35.5465C98.7862 35.4455 98.72 35.3243 98.6792 35.1829C98.6385 35.0314 98.5977 34.8849 98.557 34.7435C98.5264 34.592 98.4806 34.4557 98.4194 34.3345C98.3685 34.2032 98.2819 34.0971 98.1596 34.0163C98.129 34.0769 98.1138 34.1476 98.1138 34.2284C98.1138 34.2991 98.1188 34.3648 98.129 34.4254C98.1494 34.486 98.1596 34.5516 98.1596 34.6223C98.0577 34.6728 97.9813 34.7536 97.9304 34.8647C97.8896 34.9657 97.8183 35.0465 97.7164 35.1071C97.6349 35.4303 97.5177 35.7384 97.3649 36.0313C97.212 36.3141 97.049 36.5969 96.8758 36.8797C96.7128 37.1625 96.5548 37.4503 96.402 37.7432C96.2492 38.026 96.1269 38.324 96.0352 38.6371C95.9028 38.728 95.8111 38.8441 95.7601 38.9855C95.7194 39.1269 95.699 39.2683 95.699 39.4097C95.7907 39.4602 95.8926 39.4905 96.0046 39.5006C96.1269 39.5006 96.2441 39.5006 96.3562 39.5006C96.4682 39.5006 96.5752 39.5107 96.6771 39.5309C96.779 39.5511 96.8707 39.6016 96.9522 39.6824C97.0847 39.642 97.2273 39.6167 97.3801 39.6066C97.5432 39.5864 97.6756 39.541 97.7775 39.4703C97.9813 39.541 98.2004 39.5763 98.4347 39.5763C98.557 39.5763 98.6741 39.5662 98.7862 39.546C98.9085 39.5258 99.0257 39.5006 99.1377 39.4703C99.2294 39.4905 99.3008 39.5258 99.3517 39.5763C99.4027 39.6167 99.4791 39.6319 99.581 39.6218C99.6319 39.5814 99.6625 39.541 99.6727 39.5006C99.6828 39.4501 99.7083 39.4046 99.7491 39.3643Z" fill="black"/>
<path d="M1.68125 8.01692C2.84285 10.6904 4.5744 13.1703 7.55754 14.2711C11.0469 15.5586 15.2557 13.367 16.7413 11.7694C18.3155 10.0767 19.5307 5.93431 19.7429 5.17946C19.7598 5.11923 19.7152 5.06029 19.6533 5.06076C18.8852 5.0666 14.6998 5.15211 12.6953 6.31124C10.9976 7.29301 9.35576 10.1774 9.35576 10.1774C9.35576 10.1774 8.64038 6.0464 7.55753 4.37813C6.20972 2.30166 2.40079 0.976215 1.7702 0.768129C1.72009 0.751595 1.67007 0.779098 1.65646 0.830613C1.48648 1.47378 0.533601 5.37551 1.68125 8.01692Z" fill="#748600"/>
<path fill-rule="evenodd" clip-rule="evenodd" d="M2.21955 1.73844C2.11478 2.24292 1.99235 2.94892 1.92624 3.73881C1.81377 5.08255 1.8741 6.56463 2.37167 7.70983C3.49702 10.2999 5.11279 12.5568 7.81594 13.5542C9.34118 14.117 11.0761 13.9341 12.654 13.3811C14.2361 12.8267 15.5481 11.939 16.1921 11.2465C16.8723 10.515 17.5266 9.17807 18.052 7.84084C18.3445 7.09657 18.5835 6.38822 18.7541 5.8486C18.2075 5.8727 17.4904 5.91972 16.7267 6.01128C15.3411 6.1774 13.9284 6.4771 13.0696 6.97373C12.3653 7.38101 11.6083 8.23553 10.9932 9.06901C10.6954 9.47259 10.4476 9.84792 10.2744 10.1222C10.1879 10.2591 10.1205 10.3701 10.0753 10.446C10.0652 10.4629 10.0562 10.478 10.0483 10.4913L9.17495 13.2528L7.73834 12.7877L8.57976 10.1273C8.55878 10.0151 8.5281 9.85531 8.48832 9.65955C8.40605 9.25465 8.28545 8.69851 8.1321 8.0927C7.81602 6.84397 7.39094 5.51157 6.92713 4.79701C6.36781 3.9353 5.23266 3.15935 4.05316 2.55271C3.3629 2.19771 2.70204 1.92278 2.21955 1.73844ZM9.7221 8.24118C9.68209 8.07151 9.63912 7.895 9.59332 7.71407C9.28101 6.48022 8.80697 4.91297 8.18793 3.95926C7.39944 2.74449 5.95622 1.81949 4.73666 1.19226C3.48828 0.550204 2.33753 0.152713 2.00405 0.0426707C1.54216 -0.109746 1.05305 0.159827 0.927868 0.633494C0.836734 0.97832 0.544423 2.16228 0.423244 3.61003C0.303696 5.03831 0.340753 6.8278 0.990829 8.324C2.18867 11.0809 4.03602 13.7839 7.29914 14.988C9.26331 15.7127 11.3774 15.4436 13.1477 14.8232C14.9137 14.2043 16.4489 13.1974 17.2906 12.2923C18.1845 11.331 18.9249 9.75046 19.4537 8.40461C19.9941 7.02933 20.3589 5.77763 20.4683 5.38818C20.6237 4.8354 20.2095 4.29344 19.6477 4.29771C19.25 4.30074 17.9809 4.3241 16.5492 4.49575C15.1489 4.66363 13.4667 4.98624 12.3211 5.64874C11.3277 6.22324 10.4149 7.30182 9.78457 8.15599C9.76351 8.18453 9.74268 8.21293 9.7221 8.24118Z" fill="#303030"/>
<path d="M0 17.4887C0 14.644 2.27921 12.338 5.09077 12.338H13.5658C16.3773 12.338 18.6565 14.644 18.6565 17.4887V45.8493C18.6565 48.694 16.3773 51 13.5658 51H5.09077C2.27921 51 0 48.694 0 45.8493V17.4887Z" fill="#D0341D"/>
<path d="M0 17.4887C0 14.644 2.27921 12.338 5.09077 12.338H13.5658C16.3773 12.338 18.6565 14.644 18.6565 17.4887V45.8493C18.6565 48.694 16.3773 51 13.5658 51H5.09077C2.27921 51 0 48.694 0 45.8493V17.4887Z" fill="black" fill-opacity="0.2"/>
<path fill-rule="evenodd" clip-rule="evenodd" d="M13.5658 13.8641H5.09077C3.11227 13.8641 1.50838 15.4869 1.50838 17.4887V45.8493C1.50838 47.8511 3.11227 49.4739 5.09077 49.4739H13.5658C15.5443 49.4739 17.1481 47.8511 17.1481 45.8493V17.4887C17.1481 15.4869 15.5443 13.8641 13.5658 13.8641ZM5.09077 12.338C2.27921 12.338 0 14.644 0 17.4887V45.8493C0 48.694 2.27921 51 5.09077 51H13.5658C16.3773 51 18.6565 48.694 18.6565 45.8493V17.4887C18.6565 14.644 16.3773 12.338 13.5658 12.338H5.09077Z" fill="#303030"/>
</svg>
